<?xml version="1.0" encoding="UTF-8" standalone="no"?>
<svg
   version="1.1"
   width="136.85483"
   height="170.4205"
   viewBox="0 0 136.85483 170.4205"
   id="svg10"
   sodipodi:docname="logo-white.svg"
   xmlns:inkscape="http://www.inkscape.org/namespaces/inkscape"
   xmlns:sodipodi="http://sodipodi.sourceforge.net/DTD/sodipodi-0.dtd"
   xmlns="http://www.w3.org/2000/svg"
   xmlns:svg="http://www.w3.org/2000/svg">
  <defs
     id="defs10" />
  <sodipodi:namedview
     id="namedview10"
     pagecolor="#ffffff"
     bordercolor="#000000"
     borderopacity="0.25"
     inkscape:showpageshadow="2"
     inkscape:pageopacity="0.0"
     inkscape:pagecheckerboard="0"
     inkscape:deskcolor="#d1d1d1" />
  <g
     id="g13"
     transform="translate(-313.16025,-192.66164)"
     style="fill:#ffffff;stroke:none">
    <path
       d="m 445.2586,236.92793 c -7.82655,-3.68707 -11.83441,4.47055 -11.83441,4.47055 l -19.57459,32.07116 -3.9359,-2.27229 14.05324,-51.97888 c 0,0 1.85485,-8.6347 -6.26782,-10.31065 -9.02952,-1.97617 -11.7028,5.26226 -11.7028,5.26226 l -13.20602,50.6628 -4.39857,-1.21326 6.42616,-60.70406 c 0,0 0.54699,-9.4593 -8.53394,-10.20988 -9.0871,-0.7588 -10.21194,8.53805 -10.21194,8.53805 l -6.16705,60.71023 h -3.9359 l -4.5857,-56.27258 c 0,0 -2.07899,-9.16524 -10.0207,-9.16524 -7.93348,0 -8.3283,10.76304 -8.3283,10.76304 l 2.01936,69.22155 -2.01936,2.21676 -15.04646,-11.84058 c 0,0 -7.0698,-5.63445 -12.72688,0.12544 -5.11008,5.20056 0.70945,13.13404 0.70945,13.13404 l 29.6981,45.91053 65.67225,3.92356 38.05314,-82.23015 c 0,0 2.98585,-7.29806 -4.13536,-10.8124"
       fill="#ffffff"
       data-fill-palette-color="accent"
       id="path12"
       style="fill:#ffffff;stroke:none;stroke-width:2.05637" />
    <polygon
       points="69.885,77.215 32.973,74.854 29.534,83.67 29.534,89 69.885,89 "
       fill="#ffffff"
       data-fill-palette-color="accent"
       id="polygon12"
       style="fill:#ffffff;stroke:none"
       transform="matrix(2.0563706,0,0,2.0563706,272.03199,180.06517)" />
  </g>
</svg>
