<svg xmlns="http://www.w3.org/2000/svg" version="1.1" xmlns:xlink="http://www.w3.org/1999/xlink" xmlns:svgjs="http://svgjs.dev/svgjs" width="1500" height="1500" viewBox="0 0 1500 1500"><rect width="1500" height="1500" fill="#97d5ee"></rect><g transform="matrix(0.6666666666666666,0,0,0.6666666666666666,249.39393939393943,595.8103399743918)"><svg viewBox="0 0 396 122" data-background-color="#97d5ee" preserveAspectRatio="xMidYMid meet" height="462" width="1500" xmlns="http://www.w3.org/2000/svg" xmlns:xlink="http://www.w3.org/1999/xlink"><g id="tight-bounds" transform="matrix(1,0,0,1,0.2400000000000091,0.07512507507857435)"><svg viewBox="0 0 395.52 121.84974984984284" height="121.84974984984284" width="395.52"><g><svg viewBox="0 0 553.1790106683233 170.4205200043455" height="121.84974984984284" width="395.52"><g transform="matrix(1,0,0,1,157.6590106683233,23.553053054146147)"><svg viewBox="0 0 395.52 123.3144138960532" height="123.3144138960532" width="395.52"><g id="textblocktransform"><svg viewBox="0 0 395.52 123.3144138960532" height="123.3144138960532" width="395.52" id="textblock"><g><svg viewBox="0 0 395.52 88.12486005926901" height="88.12486005926901" width="395.52"><g transform="matrix(1,0,0,1,0,0)"><svg width="395.52" viewBox="2.86 -37.84 222.41 49.56" height="88.12486005926901" data-palette-color="#db3e25"><path d="M18.19-26L18.19-26 17.31-26.15Q15.97-27.76 14.38-28.39 12.79-29.03 11.4-29.03L11.4-29.03Q9.59-29.03 8.46-28.34 7.32-27.66 6.8-26.67 6.27-25.68 6.27-24.76L6.27-24.76Q6.27-23.22 7.39-22.12 8.5-21.02 10.24-20.12 11.99-19.21 13.94-18.29 15.89-17.36 17.64-16.16 19.38-14.97 20.5-13.29 21.61-11.62 21.61-9.2L21.61-9.2Q21.61-7.57 20.95-5.83 20.29-4.1 18.93-2.61 17.58-1.12 15.54-0.2 13.5 0.73 10.74 0.73L10.74 0.73Q9.13 0.73 7.03 0.09 4.93-0.56 3.2-1.66L3.2-1.66Q3.03-1.76 2.94-2.48 2.86-3.2 2.86-4.21 2.86-5.22 2.94-6.24 3.03-7.25 3.2-7.91L3.2-7.91 4.2-7.79Q5.32-4.91 7.47-3.55 9.62-2.2 12.11-2.2L12.11-2.2Q13.57-2.2 15-2.98 16.43-3.76 17.37-5.07 18.31-6.37 18.31-7.91L18.31-7.91Q18.31-9.89 17.21-11.19 16.11-12.5 14.38-13.43 12.65-14.36 10.71-15.2 8.76-16.04 7.03-17.09 5.3-18.14 4.2-19.69 3.1-21.24 3.1-23.61L3.1-23.61Q3.1-24.76 3.63-26.11 4.15-27.47 5.3-28.7 6.45-29.93 8.3-30.71 10.16-31.49 12.84-31.49L12.84-31.49Q15.06-31.49 17.13-30.86 19.19-30.22 20.09-29.25L20.09-29.25Q20.34-29.05 20.01-28.41 19.68-27.76 19.14-27.06 18.6-26.37 18.19-26ZM46.99-11.84L46.99-11.84Q46.99-9.4 46.1-7.15 45.21-4.91 43.67-3.13 42.14-1.34 40.13-0.31 38.13 0.73 35.91 0.73L35.91 0.73Q32.83 0.73 30.55-0.78 28.27-2.29 27.01-4.91 25.75-7.52 25.75-10.84L25.75-10.84Q25.75-13.26 26.62-15.52 27.49-17.77 29.01-19.57 30.54-21.36 32.55-22.4 34.57-23.44 36.86-23.44L36.86-23.44Q39.94-23.44 42.21-21.92 44.48-20.41 45.74-17.8 46.99-15.19 46.99-11.84ZM43.21-11.11L43.21-11.11Q43.21-13.7 42.15-15.88 41.09-18.07 39.46-19.41 37.84-20.75 36.15-20.75L36.15-20.75Q33.69-20.75 32.24-19.53 30.78-18.31 30.16-16.24 29.54-14.16 29.54-11.55L29.54-11.55Q29.54-8.98 30.67-6.8 31.81-4.61 33.46-3.28 35.1-1.95 36.59-1.95L36.59-1.95Q40.06-1.95 41.64-4.44 43.21-6.93 43.21-11.11ZM61.4 0L50.41 0 50.41-1.05Q52.51-1.42 53.29-1.78 54.07-2.15 54.07-2.54L54.07-2.54 54.07-31.64Q54.07-33.08 53.79-33.7 53.51-34.33 52.77-34.55 52.02-34.77 50.65-34.91L50.65-34.91 50.65-35.89Q52.41-36.23 53.89-36.65 55.37-37.06 56.86-37.84L56.86-37.84 57.73-37.01 57.73-2.54Q57.73-2.17 58.56-1.78 59.39-1.39 61.4-1.05L61.4-1.05 61.4 0ZM86.64-22.71L86.64-21.66Q85.17-21.31 84.7-21.01 84.22-20.7 83.95-20L83.95-20 77.04-1.44Q76.65-0.34 75.52 0.12 74.38 0.59 73.75 0.73L73.75 0.73 65.69-20Q65.23-21.14 62.98-21.66L62.98-21.66 62.98-22.71 72.4-22.71 72.4-21.66Q70.52-21.41 69.93-21.09 69.33-20.78 69.65-20L69.65-20 75.65-4.35 81.29-20Q81.56-20.73 81.06-21.06 80.56-21.39 78.75-21.66L78.75-21.66 78.75-22.71 86.64-22.71ZM107.09-13.6L107.09-13.6Q106.66-13.11 105.92-12.7 105.19-12.28 104.41-11.96L104.41-11.96 90.4-11.96 90.44-14.16 102.16-14.16Q102.72-14.16 102.91-14.34 103.09-14.53 103.09-15.04L103.09-15.04Q103.09-15.7 102.9-16.67 102.7-17.65 102.18-18.62 101.65-19.58 100.65-20.23 99.65-20.87 98.06-20.87L98.06-20.87Q96.11-20.87 94.64-19.73 93.18-18.58 92.37-16.61 91.57-14.65 91.57-12.13L91.57-12.13Q91.57-9.57 92.43-7.36 93.3-5.15 94.92-3.8 96.55-2.44 98.79-2.44L98.79-2.44Q99.82-2.44 100.78-2.65 101.75-2.86 102.99-3.56 104.24-4.27 106.04-5.76L106.04-5.76Q106.36-5.59 106.61-5.27 106.85-4.96 106.95-4.76L106.95-4.76Q104.78-2.39 103.24-1.21 101.7-0.02 100.34 0.35 98.99 0.73 97.3 0.73L97.3 0.73Q94.81 0.73 92.67-0.67 90.52-2.08 89.21-4.61 87.91-7.15 87.91-10.6L87.91-10.6Q87.91-13.89 89.33-16.83 90.76-19.78 93.3-21.51L93.3-21.51Q94.37-22.27 95.91-22.85 97.45-23.44 98.74-23.44L98.74-23.44Q101.14-23.44 102.75-22.5 104.36-21.56 105.31-20.07 106.26-18.58 106.68-16.87 107.09-15.16 107.09-13.6ZM127.23-26L127.23-26 126.35-26.15Q125.01-27.76 123.43-28.39 121.84-29.03 120.45-29.03L120.45-29.03Q118.64-29.03 117.5-28.34 116.37-27.66 115.84-26.67 115.32-25.68 115.32-24.76L115.32-24.76Q115.32-23.22 116.43-22.12 117.54-21.02 119.29-20.12 121.03-19.21 122.99-18.29 124.94-17.36 126.68-16.16 128.43-14.97 129.54-13.29 130.65-11.62 130.65-9.2L130.65-9.2Q130.65-7.57 129.99-5.83 129.33-4.1 127.98-2.61 126.62-1.12 124.58-0.2 122.55 0.73 119.79 0.73L119.79 0.73Q118.18 0.73 116.08 0.09 113.98-0.56 112.24-1.66L112.24-1.66Q112.07-1.76 111.99-2.48 111.9-3.2 111.9-4.21 111.9-5.22 111.99-6.24 112.07-7.25 112.24-7.91L112.24-7.91 113.24-7.79Q114.37-4.91 116.52-3.55 118.66-2.2 121.15-2.2L121.15-2.2Q122.62-2.2 124.05-2.98 125.48-3.76 126.42-5.07 127.36-6.37 127.36-7.91L127.36-7.91Q127.36-9.89 126.26-11.19 125.16-12.5 123.43-13.43 121.69-14.36 119.75-15.2 117.81-16.04 116.08-17.09 114.34-18.14 113.24-19.69 112.15-21.24 112.15-23.61L112.15-23.61Q112.15-24.76 112.67-26.11 113.2-27.47 114.34-28.7 115.49-29.93 117.35-30.71 119.2-31.49 121.89-31.49L121.89-31.49Q124.11-31.49 126.17-30.86 128.23-30.22 129.14-29.25L129.14-29.25Q129.38-29.05 129.05-28.41 128.72-27.76 128.19-27.06 127.65-26.37 127.23-26ZM148.06 0.73L148.06 0.73Q146.64 0.73 144.82-0.09 143-0.9 141.27-2.39L141.27-2.39 141.27 9.16Q141.27 9.55 142.18 9.94 143.1 10.33 145.4 10.67L145.4 10.67 145.4 11.72 134.19 11.72 134.19 10.67Q135.8 10.28 136.7 9.92 137.61 9.57 137.61 9.16L137.61 9.16 137.61-17.36Q137.61-18.58 137.4-19.24 137.19-19.9 136.47-20.17 135.75-20.43 134.19-20.51L134.19-20.51 134.19-21.48Q135.87-21.85 137.25-22.3 138.63-22.75 140.05-23.44L140.05-23.44 140.9-22.58 141.12-17.75Q143.56-20.68 145.93-22.06 148.3-23.44 149.69-23.44L149.69-23.44Q153.04-23.44 155.21-20.4 157.38-17.36 157.38-12.01L157.38-12.01Q157.38-9.89 156.6-7.65 155.82-5.42 154.5-3.52 153.18-1.61 151.51-0.44 149.84 0.73 148.06 0.73ZM148.06-20.39L148.06-20.39Q147.18-20.39 145.3-19.21 143.42-18.04 141.27-14.89L141.27-14.89 141.27-5.2Q143.44-3.56 145.07-3 146.69-2.44 148.01-2.44L148.01-2.44Q150.62-2.44 152.35-4.47 154.09-6.49 154.09-10.4L154.09-10.4Q154.09-13.26 153.23-15.52 152.38-17.77 151.01-19.08 149.64-20.39 148.06-20.39ZM181.57-3.1L181.94-2Q179.87-0.59 178.51 0.07 177.16 0.73 176.47 0.73L176.47 0.73Q175.62 0.73 175.08-0.55 174.54-1.83 174.54-4L174.54-4 174.54-17.14Q174.54-18.8 173.69-19.93 172.83-21.07 170.44-21L170.44-21Q168.88-20.97 167.6-20.06 166.32-19.14 166.46-17.68L166.46-17.68Q166.51-17.38 165.63-17.02 164.75-16.65 163.74-16.42 162.73-16.19 162.31-16.28L162.31-16.28 161.97-17.24Q162.73-18.87 164.46-20.28 166.19-21.68 168.38-22.56 170.56-23.44 172.61-23.44L172.61-23.44Q175.3-23.44 176.75-22.03 178.21-20.63 178.21-18.12L178.21-18.12 178.21-4.35Q178.21-2.44 179.18-2.44L179.18-2.44Q179.52-2.44 180.06-2.58 180.6-2.71 181.57-3.1L181.57-3.1ZM174.79-13.75L174.79-11.91Q171.98-11.47 170.42-11.04 168.85-10.6 168.05-10.12 167.24-9.64 166.71-9.08L166.71-9.08Q166.1-8.42 165.69-7.58 165.29-6.74 165.29-5.59L165.29-5.59Q165.29-4.3 165.77-3.61 166.24-2.93 166.88-2.69 167.51-2.44 167.93-2.44L167.93-2.44Q169.44-2.44 171.15-3.25 172.86-4.05 174.79-5.76L174.79-5.76 174.98-3.96Q172.69-1.49 170.42-0.38 168.15 0.73 166.49 0.73L166.49 0.73Q165.31 0.73 164.12 0.21 162.92-0.32 162.1-1.49 161.29-2.66 161.29-4.54L161.29-4.54Q161.29-6.42 161.93-7.65 162.58-8.89 163.48-9.79L163.48-9.79Q164.29-10.6 165.44-11.28 166.58-11.96 168.77-12.57 170.95-13.18 174.79-13.75L174.79-13.75ZM201.84-5.64L202.79-4.64Q200.66-2.15 199.19-1.01 197.71 0.12 196.44 0.43 195.17 0.73 193.63 0.73L193.63 0.73Q191.26 0.73 189.1-0.65 186.94-2.03 185.59-4.63 184.23-7.23 184.23-10.84L184.23-10.84Q184.23-14.36 185.88-17.21 187.53-20.07 190.36-21.75 193.19-23.44 196.68-23.44L196.68-23.44Q198.3-23.44 199.94-22.9 201.59-22.36 202.42-21.51L202.42-21.51Q202.49-21.12 202.26-20.34 202.03-19.56 201.69-18.76 201.35-17.97 201.03-17.5L201.03-17.5 200.13-17.75Q199.74-18.6 198.37-19.68 197-20.75 194.49-20.75L194.49-20.75Q192.78-20.75 191.28-19.74 189.77-18.73 188.83-16.69 187.9-14.65 187.9-11.6L187.9-11.6Q187.9-8.84 188.96-6.77 190.02-4.71 191.73-3.58 193.44-2.44 195.39-2.44L195.39-2.44Q196.32-2.44 197.1-2.6 197.88-2.76 198.95-3.43 200.03-4.1 201.84-5.64L201.84-5.64ZM225.27-13.6L225.27-13.6Q224.83-13.11 224.1-12.7 223.37-12.28 222.58-11.96L222.58-11.96 208.57-11.96 208.62-14.16 220.34-14.16Q220.9-14.16 221.08-14.34 221.27-14.53 221.27-15.04L221.27-15.04Q221.27-15.7 221.07-16.67 220.88-17.65 220.35-18.62 219.83-19.58 218.83-20.23 217.82-20.87 216.24-20.87L216.24-20.87Q214.28-20.87 212.82-19.73 211.35-18.58 210.55-16.61 209.74-14.65 209.74-12.13L209.74-12.13Q209.74-9.57 210.61-7.36 211.48-5.15 213.1-3.8 214.72-2.44 216.97-2.44L216.97-2.44Q218-2.44 218.96-2.65 219.92-2.86 221.17-3.56 222.41-4.27 224.22-5.76L224.22-5.76Q224.54-5.59 224.78-5.27 225.03-4.96 225.12-4.76L225.12-4.76Q222.95-2.39 221.41-1.21 219.87-0.02 218.52 0.35 217.17 0.73 215.48 0.73L215.48 0.73Q212.99 0.73 210.84-0.67 208.69-2.08 207.39-4.61 206.08-7.15 206.08-10.6L206.08-10.6Q206.08-13.89 207.51-16.83 208.94-19.78 211.48-21.51L211.48-21.51Q212.55-22.27 214.09-22.85 215.63-23.44 216.92-23.44L216.92-23.44Q219.31-23.44 220.92-22.5 222.54-21.56 223.49-20.07 224.44-18.58 224.86-16.87 225.27-15.16 225.27-13.6Z" opacity="1" transform="matrix(1,0,0,1,0,0)" fill="#db3e25" class="wordmark-text-0" data-fill-palette-color="primary" id="text-0"></path></svg></g></svg></g><g transform="matrix(1,0,0,1,0,108.929024522621)"><svg viewBox="0 0 232.209792 14.385389373432194" height="14.385389373432194" width="232.209792"><g transform="matrix(1,0,0,1,0,0)"><svg width="232.209792" viewBox="1 -35.2 721.47 44.7" height="14.385389373432194" data-palette-color="#db3e25"><path d="M38.05 0L32.2 0 22.85-30.35 21.7-34.05 26.6-34.05 36.15-2.5 33.95-3 42.25-34.05 47.3-34.05 38.05 0ZM16.1 0L10.25 0 1-34.05 6.05-34.05 14.35-3 12.15-2.5 21.7-34.05 26.6-34.05 25.45-30.35 16.1 0ZM56.5 0L51.5 0 51.5-34.05 56.5-34.05 56.5 0ZM72.85 0L67.85 0 67.85-15.6Q67.85-18.2 66.67-19.1 65.5-20 63.9-20L63.9-20Q62.3-20 60.65-19.35 59-18.7 57.7-17.6 56.4-16.5 55.7-15.15L55.7-15.15 55.1-19.95Q56.5-21.55 58.15-22.65 59.8-23.75 61.65-24.33 63.5-24.9 65.45-24.9L65.45-24.9Q68.05-24.9 69.55-24.03 71.05-23.15 71.75-21.68 72.45-20.2 72.65-18.35 72.85-16.5 72.85-14.55L72.85-14.55 72.85 0ZM89.5 0.5L89.5 0.5Q85.95 0.5 83.25-1.07 80.55-2.65 79.05-5.5 77.55-8.35 77.55-12.15L77.55-12.15Q77.55-16 79.05-18.85 80.55-21.7 83.25-23.3 85.95-24.9 89.5-24.9L89.5-24.9Q93.1-24.9 95.8-23.3 98.5-21.7 100-18.85 101.5-16 101.5-12.15L101.5-12.15Q101.5-11.8 101.47-11.43 101.45-11.05 101.4-10.75L101.4-10.75 82.3-10.75 82.3-15.05 97.8-15.05 96.4-12.15Q96.4-15.95 94.7-18.4 93-20.85 89.5-20.85L89.5-20.85Q86.4-20.85 84.55-18.88 82.7-16.9 82.7-13.7L82.7-13.7 82.7-11.1Q82.7-7.75 84.5-5.78 86.3-3.8 89.5-3.8L89.5-3.8Q92.45-3.8 94.05-5.05 95.65-6.3 96.85-8.15L96.85-8.15 100.6-5.8Q98.9-2.65 96.22-1.07 93.55 0.5 89.5 0.5ZM106.19-24.4L109.99-24.4 111.19-17.8 111.19 0 106.19 0 106.19-24.4ZM110.44-15.75L110.44-15.75 109.24-16.3 109.24-19.95 109.69-20.5Q110.19-21.4 111.27-22.43 112.34-23.45 113.79-24.18 115.24-24.9 116.74-24.9L116.74-24.9Q117.49-24.9 118.17-24.8 118.84-24.7 119.19-24.45L119.19-24.45 119.19-19.95 117.64-19.95Q114.24-19.95 112.69-18.93 111.14-17.9 110.44-15.75ZM133.89 0.5L133.89 0.5Q130.34 0.5 127.64-1.07 124.94-2.65 123.44-5.5 121.94-8.35 121.94-12.15L121.94-12.15Q121.94-16 123.44-18.85 124.94-21.7 127.64-23.3 130.34-24.9 133.89-24.9L133.89-24.9Q137.49-24.9 140.19-23.3 142.89-21.7 144.39-18.85 145.89-16 145.89-12.15L145.89-12.15Q145.89-11.8 145.87-11.43 145.84-11.05 145.79-10.75L145.79-10.75 126.69-10.75 126.69-15.05 142.19-15.05 140.79-12.15Q140.79-15.95 139.09-18.4 137.39-20.85 133.89-20.85L133.89-20.85Q130.79-20.85 128.94-18.88 127.09-16.9 127.09-13.7L127.09-13.7 127.09-11.1Q127.09-7.75 128.89-5.78 130.69-3.8 133.89-3.8L133.89-3.8Q136.84-3.8 138.44-5.05 140.04-6.3 141.24-8.15L141.24-8.15 144.99-5.8Q143.29-2.65 140.62-1.07 137.94 0.5 133.89 0.5ZM179.09 0.5L179.09 0.5Q173.94 0.5 170.06-1.78 166.19-4.05 164.04-8.03 161.89-12 161.89-17L161.89-17Q161.89-20.8 163.19-24 164.49-27.2 166.81-29.55 169.14-31.9 172.26-33.2 175.39-34.5 179.09-34.5L179.09-34.5Q184.89-34.5 188.59-32.13 192.29-29.75 194.64-25.75L194.64-25.75 189.74-24.3Q187.44-27.45 184.81-28.58 182.19-29.7 179.09-29.7L179.09-29.7Q175.64-29.7 172.91-28.05 170.19-26.4 168.59-23.55 166.99-20.7 166.99-17L166.99-17Q166.99-13.35 168.59-10.48 170.19-7.6 172.91-5.95 175.64-4.3 179.09-4.3L179.09-4.3Q182.19-4.3 184.81-5.43 187.44-6.55 189.74-9.7L189.74-9.7 194.64-8.25Q192.29-4.25 188.59-1.88 184.89 0.5 179.09 0.5ZM206.78 0.5L206.78 0.5Q204.03 0.5 202.43-0.38 200.83-1.25 200.08-2.73 199.33-4.2 199.11-6.05 198.88-7.9 198.88-9.85L198.88-9.85 198.88-24.4 203.88-24.4 203.88-8.8Q203.88-6.2 205.06-5.3 206.23-4.4 207.83-4.4L207.83-4.4Q209.48-4.4 211.11-5.05 212.73-5.7 214.06-6.83 215.38-7.95 216.03-9.25L216.03-9.25 216.03-6.45 215.23-6.45 215.23-24.4 220.23-24.4 220.23 0 216.43 0 215.38-4.3 216.63-4.45Q215.33-2.9 213.73-1.78 212.13-0.65 210.38-0.08 208.63 0.5 206.78 0.5ZM226.63-24.4L230.43-24.4 231.63-17.8 231.63 0 226.63 0 226.63-24.4ZM230.88-15.75L230.88-15.75 229.68-16.3 229.68-19.95 230.13-20.5Q230.63-21.4 231.71-22.43 232.78-23.45 234.23-24.18 235.68-24.9 237.18-24.9L237.18-24.9Q237.93-24.9 238.61-24.8 239.28-24.7 239.63-24.45L239.63-24.45 239.63-19.95 238.08-19.95Q234.68-19.95 233.13-18.93 231.58-17.9 230.88-15.75ZM248.98-24.4L248.98 0 243.98 0 243.98-24.4 248.98-24.4ZM243.23-31.9L243.23-31.9Q243.23-33.35 244.1-34.27 244.98-35.2 246.48-35.2L246.48-35.2Q247.93-35.2 248.83-34.27 249.73-33.35 249.73-31.9L249.73-31.9Q249.73-30.5 248.83-29.58 247.93-28.65 246.48-28.65L246.48-28.65Q244.98-28.65 244.1-29.58 243.23-30.5 243.23-31.9ZM266.48 0.5L266.48 0.5Q262.78 0.5 259.95-1.07 257.13-2.65 255.58-5.5 254.03-8.35 254.03-12.15L254.03-12.15Q254.03-16 255.58-18.85 257.13-21.7 259.95-23.3 262.78-24.9 266.48-24.9L266.48-24.9Q270.23-24.9 273.03-23.3 275.83-21.7 277.4-18.85 278.98-16 278.98-12.15L278.98-12.15Q278.98-8.35 277.4-5.5 275.83-2.65 273.03-1.07 270.23 0.5 266.48 0.5ZM266.48-4.3L266.48-4.3Q269.83-4.3 271.85-6.48 273.88-8.65 273.88-12.15L273.88-12.15Q273.88-15.7 271.85-17.9 269.83-20.1 266.48-20.1L266.48-20.1Q263.18-20.1 261.15-17.93 259.13-15.75 259.13-12.2L259.13-12.2Q259.13-8.65 261.15-6.48 263.18-4.3 266.48-4.3ZM291.72 0.5L291.72 0.5Q289.17 0.5 286.7-0.7 284.22-1.9 282.62-4.8L282.62-4.8 286.42-7.3Q287.82-5.45 289.07-4.63 290.32-3.8 292.32-3.8L292.32-3.8Q293.92-3.8 294.8-4.63 295.67-5.45 295.67-6.65L295.67-6.65Q295.67-7.45 295.25-8.05 294.82-8.65 293.77-9.18 292.72-9.7 290.77-10.2L290.77-10.2Q287.17-11.15 285.22-12.7 283.27-14.25 283.27-17.6L283.27-17.6Q283.27-19.6 284.27-21.25 285.27-22.9 287.17-23.9 289.07-24.9 291.67-24.9L291.67-24.9Q294.77-24.9 296.97-23.63 299.17-22.35 300.42-20.6L300.42-20.6 296.57-17.75Q295.87-18.65 294.52-19.53 293.17-20.4 291.12-20.4L291.12-20.4Q289.87-20.4 288.82-19.7 287.77-19 287.77-17.75L287.77-17.75Q287.77-16.5 288.75-15.73 289.72-14.95 292.32-14.35L292.32-14.35Q296.72-13.3 298.57-11.63 300.42-9.95 300.42-7.2L300.42-7.2Q300.42-4.8 299.2-3.08 297.97-1.35 296-0.43 294.02 0.5 291.72 0.5ZM310.62-24.4L310.62 0 305.62 0 305.62-24.4 310.62-24.4ZM304.87-31.9L304.87-31.9Q304.87-33.35 305.75-34.27 306.62-35.2 308.12-35.2L308.12-35.2Q309.57-35.2 310.47-34.27 311.37-33.35 311.37-31.9L311.37-31.9Q311.37-30.5 310.47-29.58 309.57-28.65 308.12-28.65L308.12-28.65Q306.62-28.65 305.75-29.58 304.87-30.5 304.87-31.9ZM326.12 0.45L326.12 0.45Q322.92 0.45 321.04-1.43 319.17-3.3 319.17-7.25L319.17-7.25 319.17-24.1 319.17-24.4 320.12-29.9 324.17-29.9 324.17-7.15Q324.17-5.75 324.89-5.05 325.62-4.35 326.72-4.35L326.72-4.35Q327.57-4.35 328.22-4.45 328.87-4.55 329.37-4.7L329.37-4.7 329.37-0.05Q328.72 0.15 327.94 0.3 327.17 0.45 326.12 0.45ZM329.37-19.8L315.42-19.8 315.42-24.4 329.37-24.4 329.37-19.8ZM346.42-5.55L342.27-3.1 332.62-24.4 337.87-24.4 346.42-5.55ZM341.12 9.5L335.87 9.5 351.27-24.4 356.52-24.4 341.12 9.5ZM377.01 0L371.76 0 378.01-34.05 382.46-34.05 391.81-9.2 391.96-9.2 401.31-34.05 405.76-34.05 412.01 0 406.76 0 404.01-16.2Q403.41-19.7 403.01-23.13 402.61-26.55 402.51-30L402.51-30 403.76-30Q402.86-25.85 401.89-22.7 400.91-19.55 399.66-16.2L399.66-16.2 393.81-0.55 389.96-0.55 384.11-16.2Q382.86-19.6 381.89-22.73 380.91-25.85 380.01-30L380.01-30 381.26-30Q381.16-26.55 380.76-23.13 380.36-19.7 379.76-16.2L379.76-16.2 377.01 0ZM427.46 0.5L427.46 0.5Q423.91 0.5 421.21-1.07 418.51-2.65 417.01-5.5 415.51-8.35 415.51-12.15L415.51-12.15Q415.51-16 417.01-18.85 418.51-21.7 421.21-23.3 423.91-24.9 427.46-24.9L427.46-24.9Q431.06-24.9 433.76-23.3 436.46-21.7 437.96-18.85 439.46-16 439.46-12.15L439.46-12.15Q439.46-11.8 439.43-11.43 439.41-11.05 439.36-10.75L439.36-10.75 420.26-10.75 420.26-15.05 435.76-15.05 434.36-12.15Q434.36-15.95 432.66-18.4 430.96-20.85 427.46-20.85L427.46-20.85Q424.36-20.85 422.51-18.88 420.66-16.9 420.66-13.7L420.66-13.7 420.66-11.1Q420.66-7.75 422.46-5.78 424.26-3.8 427.46-3.8L427.46-3.8Q430.41-3.8 432.01-5.05 433.61-6.3 434.81-8.15L434.81-8.15 438.56-5.8Q436.86-2.65 434.18-1.07 431.51 0.5 427.46 0.5ZM454.61 0.5L454.61 0.5Q451.06 0.5 448.36-1.07 445.66-2.65 444.16-5.5 442.66-8.35 442.66-12.15L442.66-12.15Q442.66-16 444.16-18.85 445.66-21.7 448.36-23.3 451.06-24.9 454.61-24.9L454.61-24.9Q458.21-24.9 460.91-23.3 463.61-21.7 465.11-18.85 466.61-16 466.61-12.15L466.61-12.15Q466.61-11.8 466.58-11.43 466.56-11.05 466.51-10.75L466.51-10.75 447.41-10.75 447.41-15.05 462.91-15.05 461.51-12.15Q461.51-15.95 459.81-18.4 458.11-20.85 454.61-20.85L454.61-20.85Q451.51-20.85 449.66-18.88 447.81-16.9 447.81-13.7L447.81-13.7 447.81-11.1Q447.81-7.75 449.61-5.78 451.41-3.8 454.61-3.8L454.61-3.8Q457.56-3.8 459.16-5.05 460.76-6.3 461.96-8.15L461.96-8.15 465.71-5.8Q464.01-2.65 461.33-1.07 458.66 0.5 454.61 0.5ZM480.3 0.45L480.3 0.45Q477.1 0.45 475.23-1.43 473.35-3.3 473.35-7.25L473.35-7.25 473.35-24.1 473.35-24.4 474.3-29.9 478.35-29.9 478.35-7.15Q478.35-5.75 479.08-5.05 479.8-4.35 480.9-4.35L480.9-4.35Q481.75-4.35 482.4-4.45 483.05-4.55 483.55-4.7L483.55-4.7 483.55-0.05Q482.9 0.15 482.13 0.3 481.35 0.45 480.3 0.45ZM483.55-19.8L469.6-19.8 469.6-24.4 483.55-24.4 483.55-19.8ZM497.05 0.5L497.05 0.5Q494.5 0.5 492.03-0.7 489.55-1.9 487.95-4.8L487.95-4.8 491.75-7.3Q493.15-5.45 494.4-4.63 495.65-3.8 497.65-3.8L497.65-3.8Q499.25-3.8 500.13-4.63 501-5.45 501-6.65L501-6.65Q501-7.45 500.58-8.05 500.15-8.65 499.1-9.18 498.05-9.7 496.1-10.2L496.1-10.2Q492.5-11.15 490.55-12.7 488.6-14.25 488.6-17.6L488.6-17.6Q488.6-19.6 489.6-21.25 490.6-22.9 492.5-23.9 494.4-24.9 497-24.9L497-24.9Q500.1-24.9 502.3-23.63 504.5-22.35 505.75-20.6L505.75-20.6 501.9-17.75Q501.2-18.65 499.85-19.53 498.5-20.4 496.45-20.4L496.45-20.4Q495.2-20.4 494.15-19.7 493.1-19 493.1-17.75L493.1-17.75Q493.1-16.5 494.08-15.73 495.05-14.95 497.65-14.35L497.65-14.35Q502.05-13.3 503.9-11.63 505.75-9.95 505.75-7.2L505.75-7.2Q505.75-4.8 504.53-3.08 503.3-1.35 501.33-0.43 499.35 0.5 497.05 0.5ZM542.64-14.75L528.89-14.75 528.89-19.45 542.64-19.45 542.64-14.75ZM545.6-29.35L528.75-29.35 529.89-30.95 529.89-3.95 528.5-4.75 545.6-4.75 545.6 0 524.89 0 524.89-34.05 545.6-34.05 545.6-29.35ZM571.94 0L565.89 0 559.64-9.65 561.44-9.65 555.24 0 549.19 0 558.39-13.45 558.39-10.95 549.19-24.4 555.24-24.4 561.44-14.75 559.69-14.75 565.89-24.4 571.94-24.4 562.74-10.95 562.74-13.45 571.94 0ZM588.34 0.5L588.34 0.5Q585.04 0.5 582.59-1.07 580.14-2.65 578.76-5.5 577.39-8.35 577.39-12.15L577.39-12.15Q577.39-16 578.76-18.85 580.14-21.7 582.59-23.3 585.04-24.9 588.34-24.9L588.34-24.9Q591.74-24.9 594.26-23.3 596.79-21.7 598.19-18.85 599.59-16 599.59-12.15L599.59-12.15Q599.59-8.35 598.19-5.5 596.79-2.65 594.26-1.07 591.74 0.5 588.34 0.5ZM580.99 9.5L575.99 9.5 575.99-24.4 579.79-24.4 580.99-19.5 580.49-19.5 580.49-5.6 580.99-5.6 580.99 9.5ZM587.59-3.8L587.59-3.8Q590.69-3.8 592.59-6.1 594.49-8.4 594.49-12.15L594.49-12.15Q594.49-15.95 592.59-18.28 590.69-20.6 587.59-20.6L587.59-20.6Q584.54-20.6 582.64-18.3 580.74-16 580.74-12.2L580.74-12.2Q580.74-8.4 582.64-6.1 584.54-3.8 587.59-3.8ZM614.94 0.5L614.94 0.5Q611.39 0.5 608.69-1.07 605.99-2.65 604.49-5.5 602.99-8.35 602.99-12.15L602.99-12.15Q602.99-16 604.49-18.85 605.99-21.7 608.69-23.3 611.39-24.9 614.94-24.9L614.94-24.9Q618.54-24.9 621.24-23.3 623.94-21.7 625.44-18.85 626.94-16 626.94-12.15L626.94-12.15Q626.94-11.8 626.91-11.43 626.89-11.05 626.84-10.75L626.84-10.75 607.74-10.75 607.74-15.05 623.24-15.05 621.84-12.15Q621.84-15.95 620.14-18.4 618.44-20.85 614.94-20.85L614.94-20.85Q611.84-20.85 609.99-18.88 608.14-16.9 608.14-13.7L608.14-13.7 608.14-11.1Q608.14-7.75 609.94-5.78 611.74-3.8 614.94-3.8L614.94-3.8Q617.89-3.8 619.49-5.05 621.09-6.3 622.29-8.15L622.29-8.15 626.04-5.8Q624.34-2.65 621.66-1.07 618.99 0.5 614.94 0.5ZM631.63-24.4L635.43-24.4 636.63-17.8 636.63 0 631.63 0 631.63-24.4ZM635.88-15.75L635.88-15.75 634.68-16.3 634.68-19.95 635.13-20.5Q635.63-21.4 636.71-22.43 637.78-23.45 639.23-24.18 640.68-24.9 642.18-24.9L642.18-24.9Q642.93-24.9 643.61-24.8 644.28-24.7 644.63-24.45L644.63-24.45 644.63-19.95 643.08-19.95Q639.68-19.95 638.13-18.93 636.58-17.9 635.88-15.75ZM657.88 0.45L657.88 0.45Q654.68 0.45 652.81-1.43 650.93-3.3 650.93-7.25L650.93-7.25 650.93-24.1 650.93-24.4 651.88-29.9 655.93-29.9 655.93-7.15Q655.93-5.75 656.66-5.05 657.38-4.35 658.48-4.35L658.48-4.35Q659.33-4.35 659.98-4.45 660.63-4.55 661.13-4.7L661.13-4.7 661.13-0.05Q660.48 0.15 659.71 0.3 658.93 0.45 657.88 0.45ZM661.13-19.8L647.18-19.8 647.18-24.4 661.13-24.4 661.13-19.8ZM671.93-24.4L671.93 0 666.93 0 666.93-24.4 671.93-24.4ZM666.18-31.9L666.18-31.9Q666.18-33.35 667.05-34.27 667.93-35.2 669.43-35.2L669.43-35.2Q670.88-35.2 671.78-34.27 672.68-33.35 672.68-31.9L672.68-31.9Q672.68-30.5 671.78-29.58 670.88-28.65 669.43-28.65L669.43-28.65Q667.93-28.65 667.05-29.58 666.18-30.5 666.18-31.9ZM686.23 0.5L686.23 0.5Q683.68 0.5 681.2-0.7 678.73-1.9 677.13-4.8L677.13-4.8 680.93-7.3Q682.33-5.45 683.58-4.63 684.83-3.8 686.83-3.8L686.83-3.8Q688.43-3.8 689.3-4.63 690.18-5.45 690.18-6.65L690.18-6.65Q690.18-7.45 689.75-8.05 689.33-8.65 688.28-9.18 687.23-9.7 685.28-10.2L685.28-10.2Q681.68-11.15 679.73-12.7 677.78-14.25 677.78-17.6L677.78-17.6Q677.78-19.6 678.78-21.25 679.78-22.9 681.68-23.9 683.58-24.9 686.18-24.9L686.18-24.9Q689.28-24.9 691.48-23.63 693.68-22.35 694.93-20.6L694.93-20.6 691.08-17.75Q690.38-18.65 689.03-19.53 687.68-20.4 685.63-20.4L685.63-20.4Q684.38-20.4 683.33-19.7 682.28-19 682.28-17.75L682.28-17.75Q682.28-16.5 683.25-15.73 684.23-14.95 686.83-14.35L686.83-14.35Q691.23-13.3 693.08-11.63 694.93-9.95 694.93-7.2L694.93-7.2Q694.93-4.8 693.7-3.08 692.48-1.35 690.5-0.43 688.53 0.5 686.23 0.5ZM710.47 0.5L710.47 0.5Q706.92 0.5 704.22-1.07 701.52-2.65 700.02-5.5 698.52-8.35 698.52-12.15L698.52-12.15Q698.52-16 700.02-18.85 701.52-21.7 704.22-23.3 706.92-24.9 710.47-24.9L710.47-24.9Q714.07-24.9 716.77-23.3 719.47-21.7 720.97-18.85 722.47-16 722.47-12.15L722.47-12.15Q722.47-11.8 722.45-11.43 722.42-11.05 722.37-10.75L722.37-10.75 703.27-10.75 703.27-15.05 718.77-15.05 717.37-12.15Q717.37-15.95 715.67-18.4 713.97-20.85 710.47-20.85L710.47-20.85Q707.37-20.85 705.52-18.88 703.67-16.9 703.67-13.7L703.67-13.7 703.67-11.1Q703.67-7.75 705.47-5.78 707.27-3.8 710.47-3.8L710.47-3.8Q713.42-3.8 715.02-5.05 716.62-6.3 717.82-8.15L717.82-8.15 721.57-5.8Q719.87-2.65 717.2-1.07 714.52 0.5 710.47 0.5Z" opacity="1" transform="matrix(1,0,0,1,0,0)" fill="#db3e25" class="slogan-text-1" data-fill-palette-color="secondary" id="text-1"></path></svg></g></svg></g></svg></g></svg></g><g><svg viewBox="0 0 136.85484620497132 170.4205200043455" height="170.4205200043455" width="136.85484620497132"><g><svg xmlns="http://www.w3.org/2000/svg" xmlns:xlink="http://www.w3.org/1999/xlink" version="1.1" x="0" y="0" viewBox="20.00041351750293 6.125581223886059 66.55164434213826 82.87441877611394" enable-background="new 0 0 100 100" xml:space="preserve" height="170.4205200043455" width="136.85484620497132" class="icon-icon-0" data-fill-palette-color="accent" id="icon-0"><path d="M84.239 27.652C80.433 25.859 78.484 29.826 78.484 29.826L68.965 45.422 67.051 44.317 73.885 19.04S74.787 14.841 70.837 14.026C66.446 13.065 65.146 16.585 65.146 16.585L58.724 41.222 56.585 40.632 59.71 11.112S59.976 6.512 55.56 6.147C51.141 5.778 50.594 10.299 50.594 10.299L47.595 39.822H45.681L43.451 12.457S42.44 8 38.578 8C34.72 8 34.528 13.234 34.528 13.234L35.51 46.896 34.528 47.974 27.211 42.216S23.773 39.476 21.022 42.277C18.537 44.806 21.367 48.664 21.367 48.664L35.809 70.99 67.745 72.898 86.25 32.91S87.702 29.361 84.239 27.652" fill="#db3e25" data-fill-palette-color="accent"></path><polygon points="29.534,83.67 29.534,89 69.885,89 69.885,77.215 32.973,74.854 " fill="#db3e25" data-fill-palette-color="accent"></polygon></svg></g></svg></g></svg></g><defs></defs></svg><rect width="395.52" height="121.84974984984284" fill="none" stroke="none" visibility="hidden"></rect></g></svg></g></svg>