<?xml version="1.0" encoding="UTF-8" standalone="no"?>
<!-- Created with Inkscape (http://www.inkscape.org/) -->

<svg
   width="210mm"
   height="297mm"
   viewBox="0 0 210 297"
   version="1.1"
   id="svg1"
   xmlns:xlink="http://www.w3.org/1999/xlink"
   xmlns="http://www.w3.org/2000/svg"
   xmlns:svg="http://www.w3.org/2000/svg">
  <defs
     id="defs1">
    <linearGradient
       id="linearGradient12">
      <stop
         style="stop-color:#ffd700;stop-opacity:1;"
         offset="0"
         id="stop12" />
      <stop
         style="stop-color:#ff7500;stop-opacity:1;"
         offset="1"
         id="stop13" />
    </linearGradient>
    <linearGradient
       id="linearGradient10">
      <stop
         style="stop-color:#ffcb00;stop-opacity:1;"
         offset="0"
         id="stop10" />
      <stop
         style="stop-color:#ff5100;stop-opacity:1;"
         offset="1"
         id="stop11" />
    </linearGradient>
    <linearGradient
       xlink:href="#linearGradient10"
       id="linearGradient11"
       x1="80.830276"
       y1="60.313629"
       x2="76.31749"
       y2="99.877296"
       gradientUnits="userSpaceOnUse" />
    <linearGradient
       xlink:href="#linearGradient12"
       id="linearGradient13"
       x1="35.032658"
       y1="69.729996"
       x2="63.147064"
       y2="104.73867"
       gradientUnits="userSpaceOnUse" />
  </defs>
  <g
     id="layer1">
    <path
       id="circle5"
       style="fill:none;stroke:url(#linearGradient13);stroke-width:1.32292;stroke-linecap:round"
       d="m 28.019089,7.0317396 c -2.9936,0 -5.385654,2.3911709 -5.385654,5.3821274 v 31.06489 c 0,25.916857 7.150803,44.193947 14.268115,56.008708 7.117313,11.814755 14.097627,17.067925 14.097627,17.067925 l 0.62062,0.47179 v 42.78621 H 138.9088 v -19.41953 h 3.13867 v 19.41953 h 23.34069 v -26.70966 c 0,-21.59588 -19.34872,-40.706664 -40.97438,-40.706657 h -4.89749 A 39.56276,39.527888 0 0 1 101.00319,97.102761 39.56276,39.527888 0 0 1 74.396282,86.749022 C 58.989359,78.582598 48.481178,62.395833 48.481131,43.770412 V 12.413867 c 0,-2.9909565 -2.393278,-5.3821274 -5.386879,-5.3821274 z" />
    <ellipse
       style="fill:none;stroke:url(#linearGradient11);stroke-width:1.32292;stroke-linecap:round;stroke-dasharray:none;stroke-opacity:1"
       id="circle7"
       cx="101.00299"
       cy="57.574879"
       rx="39.562763"
       ry="39.527889" />
    <g
       id="g15"
       transform="matrix(0.07014642,0,0,0.07014642,109.59635,188.15508)"
       style="fill:#ff0000;stroke:none">
      <path
         id="path13"
         style="fill:#ff0000;stroke:none;stroke-width:5.29167;stroke-linecap:round;stroke-dasharray:none"
         d="m -215.9747,11.514565 c -2.9936,0 -5.38565,2.391171 -5.38565,5.382128 v 31.06489 c 0,25.916857 7.1508,44.193947 14.26811,56.008707 7.11731,11.81476 14.09763,17.06793 14.09763,17.06793 l 0.62062,0.47179 v 42.78621 h 87.289 v -19.41953 h 3.13867 v 19.41953 h 23.340691 v -26.70966 c 0,-21.59588 -19.34872,-40.706668 -40.974381,-40.706661 h -4.89749 a 39.56276,39.527888 0 0 1 -18.5131,4.705691 39.56276,39.527888 0 0 1 -26.60691,-10.353742 c -15.40692,-8.166424 -25.9151,-24.353189 -25.91515,-42.97861 V 16.896693 c 0,-2.990957 -2.39328,-5.382128 -5.38688,-5.382128 z" />
      <ellipse
         style="fill:#ff0000;stroke:none;stroke-width:5.29167;stroke-linecap:round;stroke-dasharray:none;stroke-opacity:1"
         id="ellipse13"
         cx="-142.9908"
         cy="62.057705"
         rx="39.562763"
         ry="39.527889" />
    </g>
  </g>
</svg>
