<?xml version="1.0" encoding="UTF-8" standalone="no"?>
<svg
   version="1.1"
   width="1500"
   height="1500"
   viewBox="0 0 1500 1500"
   id="svg10"
   sodipodi:docname="solvespace-logo.svg"
   inkscape:version="1.3.2 (091e20e, 2023-11-25, custom)"
   xmlns:inkscape="http://www.inkscape.org/namespaces/inkscape"
   xmlns:sodipodi="http://sodipodi.sourceforge.net/DTD/sodipodi-0.dtd"
   xmlns="http://www.w3.org/2000/svg"
   xmlns:svg="http://www.w3.org/2000/svg">
  <defs
     id="defs10">
    <defs
       id="defs8" />
  </defs>
  <sodipodi:namedview
     id="namedview10"
     pagecolor="#ffffff"
     bordercolor="#000000"
     borderopacity="0.25"
     inkscape:showpageshadow="2"
     inkscape:pageopacity="0.0"
     inkscape:pagecheckerboard="0"
     inkscape:deskcolor="#d1d1d1"
     inkscape:zoom="0.73444824"
     inkscape:cx="801.96257"
     inkscape:cy="444.55141"
     inkscape:window-width="1920"
     inkscape:window-height="1017"
     inkscape:window-x="-8"
     inkscape:window-y="-8"
     inkscape:window-maximized="1"
     inkscape:current-layer="svg10" />
  <g
     id="textblocktransform"
     transform="translate(166.89113,39.20024)"
     style="fill:#ff0000">
    <svg
       viewBox="0 0 395.52 123.31441"
       height="123.31441"
       width="395.51999"
       id="textblock"
       version="1.1"
       style="fill:#ff0000">
      <g
         id="g2"
         style="fill:#ff0000">
        <svg
           viewBox="0 0 395.52 88.12486"
           height="88.124863"
           width="395.51999"
           version="1.1"
           id="svg2"
           style="fill:#ff0000">
          <g
             id="g1"
             style="fill:#ff0000">
            <svg
               width="395.51999"
               viewBox="2.86 -37.84 222.41 49.56"
               height="88.124863"
               data-palette-color="#db3e25"
               version="1.1"
               id="svg1"
               style="fill:#ff0000">
              <path
                 d="m 18.19,-26 v 0 l -0.88,-0.15 q -1.34,-1.61 -2.93,-2.24 -1.59,-0.64 -2.98,-0.64 v 0 q -1.81,0 -2.94,0.69 -1.14,0.68 -1.66,1.67 -0.53,0.99 -0.53,1.91 v 0 q 0,1.54 1.12,2.64 1.11,1.1 2.85,2 1.75,0.91 3.7,1.83 1.95,0.93 3.7,2.13 1.74,1.19 2.86,2.87 1.11,1.67 1.11,4.09 v 0 q 0,1.63 -0.66,3.37 -0.66,1.73 -2.02,3.22 -1.35,1.49 -3.39,2.41 -2.04,0.93 -4.8,0.93 v 0 Q 9.13,0.73 7.03,0.09 4.93,-0.56 3.2,-1.66 v 0 Q 3.03,-1.76 2.94,-2.48 2.86,-3.2 2.86,-4.21 q 0,-1.01 0.08,-2.03 0.09,-1.01 0.26,-1.67 v 0 l 1,0.12 q 1.12,2.88 3.27,4.24 2.15,1.35 4.64,1.35 v 0 q 1.46,0 2.89,-0.78 1.43,-0.78 2.37,-2.09 0.94,-1.3 0.94,-2.84 v 0 q 0,-1.98 -1.1,-3.28 -1.1,-1.31 -2.83,-2.24 -1.73,-0.93 -3.67,-1.77 -1.95,-0.84 -3.68,-1.89 -1.73,-1.05 -2.83,-2.6 -1.1,-1.55 -1.1,-3.92 v 0 q 0,-1.15 0.53,-2.5 0.52,-1.36 1.67,-2.59 1.15,-1.23 3,-2.01 1.86,-0.78 4.54,-0.78 v 0 q 2.22,0 4.29,0.63 2.06,0.64 2.96,1.61 v 0 q 0.25,0.2 -0.08,0.84 -0.33,0.65 -0.87,1.35 -0.54,0.69 -0.95,1.06 z m 28.8,14.16 v 0 q 0,2.44 -0.89,4.69 -0.89,2.24 -2.43,4.02 -1.53,1.79 -3.54,2.82 -2,1.04 -4.22,1.04 v 0 q -3.08,0 -5.36,-1.51 -2.28,-1.51 -3.54,-4.13 -1.26,-2.61 -1.26,-5.93 v 0 q 0,-2.42 0.87,-4.68 0.87,-2.25 2.39,-4.05 1.53,-1.79 3.54,-2.83 2.02,-1.04 4.31,-1.04 v 0 q 3.08,0 5.35,1.52 2.27,1.51 3.53,4.12 1.25,2.61 1.25,5.96 z m -3.78,0.73 v 0 q 0,-2.59 -1.06,-4.77 -1.06,-2.19 -2.69,-3.53 -1.62,-1.34 -3.31,-1.34 v 0 q -2.46,0 -3.91,1.22 -1.46,1.22 -2.08,3.29 -0.62,2.08 -0.62,4.69 v 0 q 0,2.57 1.13,4.75 1.14,2.19 2.79,3.52 1.64,1.33 3.13,1.33 v 0 q 3.47,0 5.05,-2.49 1.57,-2.49 1.57,-6.67 z M 61.4,0 H 50.41 v -1.05 q 2.1,-0.37 2.88,-0.73 0.78,-0.37 0.78,-0.76 v 0 -29.1 q 0,-1.44 -0.28,-2.06 -0.28,-0.63 -1.02,-0.85 -0.75,-0.22 -2.12,-0.36 v 0 -0.98 q 1.76,-0.34 3.24,-0.76 1.48,-0.41 2.97,-1.19 v 0 l 0.87,0.83 v 34.47 q 0,0.37 0.83,0.76 0.83,0.39 2.84,0.73 v 0 z m 25.24,-22.71 v 1.05 q -1.47,0.35 -1.94,0.65 -0.48,0.31 -0.75,1.01 v 0 l -6.91,18.56 q -0.39,1.1 -1.52,1.56 -1.14,0.47 -1.77,0.61 v 0 L 65.69,-20 q -0.46,-1.14 -2.71,-1.66 v 0 -1.05 h 9.42 v 1.05 q -1.88,0.25 -2.47,0.57 -0.6,0.31 -0.28,1.09 v 0 l 6,15.65 5.64,-15.65 q 0.27,-0.73 -0.23,-1.06 -0.5,-0.33 -2.31,-0.6 v 0 -1.05 z m 20.45,9.11 v 0 q -0.43,0.49 -1.17,0.9 -0.73,0.42 -1.51,0.74 v 0 H 90.4 l 0.04,-2.2 h 11.72 q 0.56,0 0.75,-0.18 0.18,-0.19 0.18,-0.7 v 0 q 0,-0.66 -0.19,-1.63 -0.2,-0.98 -0.72,-1.95 -0.53,-0.96 -1.53,-1.61 -1,-0.64 -2.59,-0.64 v 0 q -1.95,0 -3.42,1.14 -1.46,1.15 -2.27,3.12 -0.8,1.96 -0.8,4.48 v 0 q 0,2.56 0.86,4.77 0.87,2.21 2.49,3.56 1.63,1.36 3.87,1.36 v 0 q 1.03,0 1.99,-0.21 0.97,-0.21 2.21,-0.91 1.25,-0.71 3.05,-2.2 v 0 q 0.32,0.17 0.57,0.49 0.24,0.31 0.34,0.51 v 0 q -2.17,2.37 -3.71,3.55 -1.54,1.19 -2.9,1.56 -1.35,0.38 -3.04,0.38 v 0 q -2.49,0 -4.63,-1.4 -2.15,-1.41 -3.46,-3.94 -1.3,-2.54 -1.3,-5.99 v 0 q 0,-3.29 1.42,-6.23 1.43,-2.95 3.97,-4.68 v 0 q 1.07,-0.76 2.61,-1.34 1.54,-0.59 2.83,-0.59 v 0 q 2.4,0 4.01,0.94 1.61,0.94 2.56,2.43 0.95,1.49 1.37,3.2 0.41,1.71 0.41,3.27 z M 127.23,-26 v 0 l -0.88,-0.15 q -1.34,-1.61 -2.92,-2.24 -1.59,-0.64 -2.98,-0.64 v 0 q -1.81,0 -2.95,0.69 -1.13,0.68 -1.66,1.67 -0.52,0.99 -0.52,1.91 v 0 q 0,1.54 1.11,2.64 1.11,1.1 2.86,2 1.74,0.91 3.7,1.83 1.95,0.93 3.69,2.13 1.75,1.19 2.86,2.87 1.11,1.67 1.11,4.09 v 0 q 0,1.63 -0.66,3.37 -0.66,1.73 -2.01,3.22 -1.36,1.49 -3.4,2.41 -2.03,0.93 -4.79,0.93 v 0 q -1.61,0 -3.71,-0.64 -2.1,-0.65 -3.84,-1.75 v 0 q -0.17,-0.1 -0.25,-0.82 -0.09,-0.72 -0.09,-1.73 0,-1.01 0.09,-2.03 0.08,-1.01 0.25,-1.67 v 0 l 1,0.12 q 1.13,2.88 3.28,4.24 2.14,1.35 4.63,1.35 v 0 q 1.47,0 2.9,-0.78 1.43,-0.78 2.37,-2.09 0.94,-1.3 0.94,-2.84 v 0 q 0,-1.98 -1.1,-3.28 -1.1,-1.31 -2.83,-2.24 -1.74,-0.93 -3.68,-1.77 -1.94,-0.84 -3.67,-1.89 -1.74,-1.05 -2.84,-2.6 -1.09,-1.55 -1.09,-3.92 v 0 q 0,-1.15 0.52,-2.5 0.53,-1.36 1.67,-2.59 1.15,-1.23 3.01,-2.01 1.85,-0.78 4.54,-0.78 v 0 q 2.22,0 4.28,0.63 2.06,0.64 2.97,1.61 v 0 q 0.24,0.2 -0.09,0.84 -0.33,0.65 -0.86,1.35 -0.54,0.69 -0.96,1.06 z m 20.83,26.73 v 0 q -1.42,0 -3.24,-0.82 -1.82,-0.81 -3.55,-2.3 v 0 11.55 q 0,0.39 0.91,0.78 0.92,0.39 3.22,0.73 v 0 1.05 h -11.21 v -1.05 q 1.61,-0.39 2.51,-0.75 0.91,-0.35 0.91,-0.76 v 0 -26.52 q 0,-1.22 -0.21,-1.88 -0.21,-0.66 -0.93,-0.93 -0.72,-0.26 -2.28,-0.34 v 0 -0.97 q 1.68,-0.37 3.06,-0.82 1.38,-0.45 2.8,-1.14 v 0 l 0.85,0.86 0.22,4.83 q 2.44,-2.93 4.81,-4.31 2.37,-1.38 3.76,-1.38 v 0 q 3.35,0 5.52,3.04 2.17,3.04 2.17,8.39 v 0 q 0,2.12 -0.78,4.36 -0.78,2.23 -2.1,4.13 -1.32,1.91 -2.99,3.08 -1.67,1.17 -3.45,1.17 z m 0,-21.12 v 0 q -0.88,0 -2.76,1.18 -1.88,1.17 -4.03,4.32 v 0 9.69 q 2.17,1.64 3.8,2.2 1.62,0.56 2.94,0.56 v 0 q 2.61,0 4.34,-2.03 1.74,-2.02 1.74,-5.93 v 0 q 0,-2.86 -0.86,-5.12 -0.85,-2.25 -2.22,-3.56 -1.37,-1.31 -2.95,-1.31 z m 33.51,17.29 0.37,1.1 q -2.07,1.41 -3.43,2.07 -1.35,0.66 -2.04,0.66 v 0 q -0.85,0 -1.39,-1.28 -0.54,-1.28 -0.54,-3.45 v 0 -13.14 q 0,-1.66 -0.85,-2.79 -0.86,-1.14 -3.25,-1.07 v 0 q -1.56,0.03 -2.84,0.94 -1.28,0.92 -1.14,2.38 v 0 q 0.05,0.3 -0.83,0.66 -0.88,0.37 -1.89,0.6 -1.01,0.23 -1.43,0.14 v 0 l -0.34,-0.96 q 0.76,-1.63 2.49,-3.04 1.73,-1.4 3.92,-2.28 2.18,-0.88 4.23,-0.88 v 0 q 2.69,0 4.14,1.41 1.46,1.4 1.46,3.91 v 0 13.77 q 0,1.91 0.97,1.91 v 0 q 0.34,0 0.88,-0.14 0.54,-0.13 1.51,-0.52 z m -6.78,-10.65 v 1.84 q -2.81,0.44 -4.37,0.87 -1.57,0.44 -2.37,0.92 -0.81,0.48 -1.34,1.04 v 0 q -0.61,0.66 -1.02,1.5 -0.4,0.84 -0.4,1.99 v 0 q 0,1.29 0.48,1.98 0.47,0.68 1.11,0.92 0.63,0.25 1.05,0.25 v 0 q 1.51,0 3.22,-0.81 1.71,-0.8 3.64,-2.51 v 0 l 0.19,1.8 q -2.29,2.47 -4.56,3.58 -2.27,1.11 -3.93,1.11 v 0 q -1.18,0 -2.37,-0.52 -1.2,-0.53 -2.02,-1.7 -0.81,-1.17 -0.81,-3.05 v 0 q 0,-1.88 0.64,-3.11 0.65,-1.24 1.55,-2.14 v 0 q 0.81,-0.81 1.96,-1.49 1.14,-0.68 3.33,-1.29 2.18,-0.61 6.02,-1.18 z m 27.05,8.11 0.95,1 q -2.13,2.49 -3.6,3.63 -1.48,1.13 -2.75,1.44 -1.27,0.3 -2.81,0.3 v 0 q -2.37,0 -4.53,-1.38 -2.16,-1.38 -3.51,-3.98 -1.36,-2.6 -1.36,-6.21 v 0 q 0,-3.52 1.65,-6.37 1.65,-2.86 4.48,-4.54 2.83,-1.69 6.32,-1.69 v 0 q 1.62,0 3.26,0.54 1.65,0.54 2.48,1.39 v 0 q 0.07,0.39 -0.16,1.17 -0.23,0.78 -0.57,1.58 -0.34,0.79 -0.66,1.26 v 0 l -0.9,-0.25 q -0.39,-0.85 -1.76,-1.93 -1.37,-1.07 -3.88,-1.07 v 0 q -1.71,0 -3.21,1.01 -1.51,1.01 -2.45,3.05 -0.93,2.04 -0.93,5.09 v 0 q 0,2.76 1.06,4.83 1.06,2.06 2.77,3.19 1.71,1.14 3.66,1.14 v 0 q 0.93,0 1.71,-0.16 0.78,-0.16 1.85,-0.83 1.08,-0.67 2.89,-2.21 z m 23.43,-7.96 v 0 q -0.44,0.49 -1.17,0.9 -0.73,0.42 -1.52,0.74 v 0 h -14.01 l 0.05,-2.2 h 11.72 q 0.56,0 0.74,-0.18 0.19,-0.19 0.19,-0.7 v 0 q 0,-0.66 -0.2,-1.63 -0.19,-0.98 -0.72,-1.95 -0.52,-0.96 -1.52,-1.61 -1.01,-0.64 -2.59,-0.64 v 0 q -1.96,0 -3.42,1.14 -1.47,1.15 -2.27,3.12 -0.81,1.96 -0.81,4.48 v 0 q 0,2.56 0.87,4.77 0.87,2.21 2.49,3.56 1.62,1.36 3.87,1.36 v 0 q 1.03,0 1.99,-0.21 0.96,-0.21 2.21,-0.91 1.24,-0.71 3.05,-2.2 v 0 q 0.32,0.17 0.56,0.49 0.25,0.31 0.34,0.51 v 0 q -2.17,2.37 -3.71,3.55 -1.54,1.19 -2.89,1.56 -1.35,0.38 -3.04,0.38 v 0 q -2.49,0 -4.64,-1.4 -2.15,-1.41 -3.45,-3.94 -1.31,-2.54 -1.31,-5.99 v 0 q 0,-3.29 1.43,-6.23 1.43,-2.95 3.97,-4.68 v 0 q 1.07,-0.76 2.61,-1.34 1.54,-0.59 2.83,-0.59 v 0 q 2.39,0 4,0.94 1.62,0.94 2.57,2.43 0.95,1.49 1.37,3.2 0.41,1.71 0.41,3.27 z"
                 opacity="1"
                 fill="#000000"
                 class="wordmark-text-0"
                 data-fill-palette-color="primary"
                 id="text-0"
                 style="fill:#ff0000" />
            </svg>
          </g>
        </svg>
      </g>
      <g
         transform="translate(0,108.92902)"
         id="g4"
         style="fill:#ff0000">
        <svg
           viewBox="0 0 232.20979 14.385389"
           height="14.385389"
           width="232.20979"
           version="1.1"
           id="svg4"
           style="fill:#ff0000">
          <g
             id="g3"
             style="fill:#ff0000">
            <svg
               width="232.20979"
               viewBox="1 -35.2 721.47 44.7"
               height="14.385389"
               data-palette-color="#db3e25"
               version="1.1"
               id="svg3"
               style="fill:#ff0000">
              <path
                 d="M 38.05,0 H 32.2 l -9.35,-30.35 -1.15,-3.7 h 4.9 l 9.55,31.55 -2.2,-0.5 8.3,-31.05 H 47.3 Z M 16.1,0 H 10.25 L 1,-34.05 h 5.05 l 8.3,31.05 -2.2,0.5 9.55,-31.55 h 4.9 l -1.15,3.7 z m 40.4,0 h -5 v -34.05 h 5 z m 16.35,0 h -5 v -15.6 q 0,-2.6 -1.18,-3.5 Q 65.5,-20 63.9,-20 v 0 q -1.6,0 -3.25,0.65 -1.65,0.65 -2.95,1.75 -1.3,1.1 -2,2.45 v 0 l -0.6,-4.8 q 1.4,-1.6 3.05,-2.7 1.65,-1.1 3.5,-1.68 1.85,-0.57 3.8,-0.57 v 0 q 2.6,0 4.1,0.87 1.5,0.88 2.2,2.35 0.7,1.48 0.9,3.33 0.2,1.85 0.2,3.8 v 0 z M 89.5,0.5 v 0 q -3.55,0 -6.25,-1.57 -2.7,-1.58 -4.2,-4.43 -1.5,-2.85 -1.5,-6.65 v 0 q 0,-3.85 1.5,-6.7 1.5,-2.85 4.2,-4.45 2.7,-1.6 6.25,-1.6 v 0 q 3.6,0 6.3,1.6 2.7,1.6 4.2,4.45 1.5,2.85 1.5,6.7 v 0 q 0,0.35 -0.03,0.72 -0.02,0.38 -0.07,0.68 v 0 H 82.3 v -4.3 h 15.5 l -1.4,2.9 q 0,-3.8 -1.7,-6.25 -1.7,-2.45 -5.2,-2.45 v 0 q -3.1,0 -4.95,1.97 -1.85,1.98 -1.85,5.18 v 0 2.6 q 0,3.35 1.8,5.32 1.8,1.98 5,1.98 v 0 q 2.95,0 4.55,-1.25 1.6,-1.25 2.8,-3.1 v 0 l 3.75,2.35 Q 98.9,-2.65 96.22,-1.07 93.55,0.5 89.5,0.5 Z m 16.69,-24.9 h 3.8 l 1.2,6.6 V 0 h -5 z m 4.25,8.65 v 0 l -1.2,-0.55 v -3.65 l 0.45,-0.55 q 0.5,-0.9 1.58,-1.93 1.07,-1.02 2.52,-1.75 1.45,-0.72 2.95,-0.72 v 0 q 0.75,0 1.43,0.1 0.67,0.1 1.02,0.35 v 0 4.5 h -1.55 q -3.4,0 -4.95,1.02 -1.55,1.03 -2.25,3.18 z M 133.89,0.5 v 0 q -3.55,0 -6.25,-1.57 -2.7,-1.58 -4.2,-4.43 -1.5,-2.85 -1.5,-6.65 v 0 q 0,-3.85 1.5,-6.7 1.5,-2.85 4.2,-4.45 2.7,-1.6 6.25,-1.6 v 0 q 3.6,0 6.3,1.6 2.7,1.6 4.2,4.45 1.5,2.85 1.5,6.7 v 0 q 0,0.35 -0.02,0.72 -0.03,0.38 -0.08,0.68 v 0 h -19.1 v -4.3 h 15.5 l -1.4,2.9 q 0,-3.8 -1.7,-6.25 -1.7,-2.45 -5.2,-2.45 v 0 q -3.1,0 -4.95,1.97 -1.85,1.98 -1.85,5.18 v 0 2.6 q 0,3.35 1.8,5.32 1.8,1.98 5,1.98 v 0 q 2.95,0 4.55,-1.25 1.6,-1.25 2.8,-3.1 v 0 l 3.75,2.35 q -1.7,3.15 -4.37,4.73 -2.68,1.57 -6.73,1.57 z m 45.2,0 v 0 q -5.15,0 -9.03,-2.28 -3.87,-2.27 -6.02,-6.25 -2.15,-3.97 -2.15,-8.97 v 0 q 0,-3.8 1.3,-7 1.3,-3.2 3.62,-5.55 2.33,-2.35 5.45,-3.65 3.13,-1.3 6.83,-1.3 v 0 q 5.8,0 9.5,2.37 3.7,2.38 6.05,6.38 v 0 l -4.9,1.45 q -2.3,-3.15 -4.93,-4.28 -2.62,-1.12 -5.72,-1.12 v 0 q -3.45,0 -6.18,1.65 -2.72,1.65 -4.32,4.5 -1.6,2.85 -1.6,6.55 v 0 q 0,3.65 1.6,6.52 1.6,2.88 4.32,4.53 2.73,1.65 6.18,1.65 v 0 q 3.1,0 5.72,-1.13 2.63,-1.12 4.93,-4.27 v 0 l 4.9,1.45 q -2.35,4 -6.05,6.37 -3.7,2.38 -9.5,2.38 z m 27.69,0 v 0 q -2.75,0 -4.35,-0.88 -1.6,-0.87 -2.35,-2.35 -0.75,-1.47 -0.97,-3.32 -0.23,-1.85 -0.23,-3.8 v 0 -14.55 h 5 v 15.6 q 0,2.6 1.18,3.5 1.17,0.9 2.77,0.9 v 0 q 1.65,0 3.28,-0.65 1.62,-0.65 2.95,-1.78 1.32,-1.12 1.97,-2.42 v 0 2.8 h -0.8 V -24.4 h 5 V 0 h -3.8 l -1.05,-4.3 1.25,-0.15 q -1.3,1.55 -2.9,2.67 -1.6,1.13 -3.35,1.7 -1.75,0.58 -3.6,0.58 z m 19.85,-24.9 h 3.8 l 1.2,6.6 V 0 h -5 z m 4.25,8.65 v 0 l -1.2,-0.55 v -3.65 l 0.45,-0.55 q 0.5,-0.9 1.58,-1.93 1.07,-1.02 2.52,-1.75 1.45,-0.72 2.95,-0.72 v 0 q 0.75,0 1.43,0.1 0.67,0.1 1.02,0.35 v 0 4.5 h -1.55 q -3.4,0 -4.95,1.02 -1.55,1.03 -2.25,3.18 z m 18.1,-8.65 V 0 h -5 v -24.4 z m -5.75,-7.5 v 0 q 0,-1.45 0.87,-2.37 0.88,-0.93 2.38,-0.93 v 0 q 1.45,0 2.35,0.93 0.9,0.92 0.9,2.37 v 0 q 0,1.4 -0.9,2.32 -0.9,0.93 -2.35,0.93 v 0 q -1.5,0 -2.38,-0.93 -0.87,-0.92 -0.87,-2.32 z m 23.25,32.4 v 0 q -3.7,0 -6.53,-1.57 -2.82,-1.58 -4.37,-4.43 -1.55,-2.85 -1.55,-6.65 v 0 q 0,-3.85 1.55,-6.7 1.55,-2.85 4.37,-4.45 2.83,-1.6 6.53,-1.6 v 0 q 3.75,0 6.55,1.6 2.8,1.6 4.37,4.45 1.58,2.85 1.58,6.7 v 0 q 0,3.8 -1.58,6.65 -1.57,2.85 -4.37,4.43 -2.8,1.57 -6.55,1.57 z m 0,-4.8 v 0 q 3.35,0 5.37,-2.18 2.03,-2.17 2.03,-5.67 v 0 q 0,-3.55 -2.03,-5.75 -2.02,-2.2 -5.37,-2.2 v 0 q -3.3,0 -5.33,2.17 -2.02,2.18 -2.02,5.73 v 0 q 0,3.55 2.02,5.72 2.03,2.18 5.33,2.18 z m 25.24,4.8 v 0 q -2.55,0 -5.02,-1.2 -2.48,-1.2 -4.08,-4.1 v 0 l 3.8,-2.5 q 1.4,1.85 2.65,2.67 1.25,0.83 3.25,0.83 v 0 q 1.6,0 2.48,-0.83 0.87,-0.82 0.87,-2.02 v 0 q 0,-0.8 -0.42,-1.4 -0.43,-0.6 -1.48,-1.13 -1.05,-0.52 -3,-1.02 v 0 q -3.6,-0.95 -5.55,-2.5 -1.95,-1.55 -1.95,-4.9 v 0 q 0,-2 1,-3.65 1,-1.65 2.9,-2.65 1.9,-1 4.5,-1 v 0 q 3.1,0 5.3,1.27 2.2,1.28 3.45,3.03 v 0 l -3.85,2.85 q -0.7,-0.9 -2.05,-1.78 -1.35,-0.87 -3.4,-0.87 v 0 q -1.25,0 -2.3,0.7 -1.05,0.7 -1.05,1.95 v 0 q 0,1.25 0.98,2.02 0.97,0.78 3.57,1.38 v 0 q 4.4,1.05 6.25,2.72 1.85,1.68 1.85,4.43 v 0 q 0,2.4 -1.22,4.12 -1.23,1.73 -3.2,2.65 -1.98,0.93 -4.28,0.93 z m 18.9,-24.9 V 0 h -5 v -24.4 z m -5.75,-7.5 v 0 q 0,-1.45 0.88,-2.37 0.87,-0.93 2.37,-0.93 v 0 q 1.45,0 2.35,0.93 0.9,0.92 0.9,2.37 v 0 q 0,1.4 -0.9,2.32 -0.9,0.93 -2.35,0.93 v 0 q -1.5,0 -2.37,-0.93 -0.88,-0.92 -0.88,-2.32 z m 21.25,32.35 v 0 q -3.2,0 -5.08,-1.88 -1.87,-1.87 -1.87,-5.82 v 0 -16.85 -0.3 l 0.95,-5.5 h 4.05 v 22.75 q 0,1.4 0.72,2.1 0.73,0.7 1.83,0.7 v 0 q 0.85,0 1.5,-0.1 0.65,-0.1 1.15,-0.25 v 0 4.65 q -0.65,0.2 -1.43,0.35 -0.77,0.15 -1.82,0.15 z m 3.25,-20.25 h -13.95 v -4.6 h 13.95 z m 17.05,14.25 -4.15,2.45 -9.65,-21.3 h 5.25 z m -5.3,15.05 h -5.25 l 15.4,-33.9 h 5.25 z M 377.01,0 h -5.25 l 6.25,-34.05 h 4.45 l 9.35,24.85 h 0.15 l 9.35,-24.85 h 4.45 L 412.01,0 h -5.25 l -2.75,-16.2 q -0.6,-3.5 -1,-6.93 -0.4,-3.42 -0.5,-6.87 v 0 h 1.25 q -0.9,4.15 -1.87,7.3 -0.98,3.15 -2.23,6.5 v 0 l -5.85,15.65 h -3.85 l -5.85,-15.65 q -1.25,-3.4 -2.22,-6.53 -0.98,-3.12 -1.88,-7.27 v 0 h 1.25 q -0.1,3.45 -0.5,6.87 -0.4,3.43 -1,6.93 v 0 z m 50.45,0.5 v 0 q -3.55,0 -6.25,-1.57 -2.7,-1.58 -4.2,-4.43 -1.5,-2.85 -1.5,-6.65 v 0 q 0,-3.85 1.5,-6.7 1.5,-2.85 4.2,-4.45 2.7,-1.6 6.25,-1.6 v 0 q 3.6,0 6.3,1.6 2.7,1.6 4.2,4.45 1.5,2.85 1.5,6.7 v 0 q 0,0.35 -0.03,0.72 -0.02,0.38 -0.07,0.68 v 0 h -19.1 v -4.3 h 15.5 l -1.4,2.9 q 0,-3.8 -1.7,-6.25 -1.7,-2.45 -5.2,-2.45 v 0 q -3.1,0 -4.95,1.97 -1.85,1.98 -1.85,5.18 v 0 2.6 q 0,3.35 1.8,5.32 1.8,1.98 5,1.98 v 0 q 2.95,0 4.55,-1.25 1.6,-1.25 2.8,-3.1 v 0 l 3.75,2.35 q -1.7,3.15 -4.38,4.73 -2.67,1.57 -6.72,1.57 z m 27.15,0 v 0 q -3.55,0 -6.25,-1.57 -2.7,-1.58 -4.2,-4.43 -1.5,-2.85 -1.5,-6.65 v 0 q 0,-3.85 1.5,-6.7 1.5,-2.85 4.2,-4.45 2.7,-1.6 6.25,-1.6 v 0 q 3.6,0 6.3,1.6 2.7,1.6 4.2,4.45 1.5,2.85 1.5,6.7 v 0 q 0,0.35 -0.03,0.72 -0.02,0.38 -0.07,0.68 v 0 h -19.1 v -4.3 h 15.5 l -1.4,2.9 q 0,-3.8 -1.7,-6.25 -1.7,-2.45 -5.2,-2.45 v 0 q -3.1,0 -4.95,1.97 -1.85,1.98 -1.85,5.18 v 0 2.6 q 0,3.35 1.8,5.32 1.8,1.98 5,1.98 v 0 q 2.95,0 4.55,-1.25 1.6,-1.25 2.8,-3.1 v 0 l 3.75,2.35 q -1.7,3.15 -4.38,4.73 -2.67,1.57 -6.72,1.57 z M 480.3,0.45 v 0 q -3.2,0 -5.07,-1.88 -1.88,-1.87 -1.88,-5.82 v 0 -16.85 -0.3 l 0.95,-5.5 h 4.05 v 22.75 q 0,1.4 0.73,2.1 0.72,0.7 1.82,0.7 v 0 q 0.85,0 1.5,-0.1 0.65,-0.1 1.15,-0.25 v 0 4.65 q -0.65,0.2 -1.42,0.35 -0.78,0.15 -1.83,0.15 z m 3.25,-20.25 H 469.6 v -4.6 h 13.95 z m 13.5,20.3 v 0 q -2.55,0 -5.02,-1.2 -2.48,-1.2 -4.08,-4.1 v 0 l 3.8,-2.5 q 1.4,1.85 2.65,2.67 1.25,0.83 3.25,0.83 v 0 q 1.6,0 2.48,-0.83 0.87,-0.82 0.87,-2.02 v 0 q 0,-0.8 -0.42,-1.4 -0.43,-0.6 -1.48,-1.13 -1.05,-0.52 -3,-1.02 v 0 q -3.6,-0.95 -5.55,-2.5 -1.95,-1.55 -1.95,-4.9 v 0 q 0,-2 1,-3.65 1,-1.65 2.9,-2.65 1.9,-1 4.5,-1 v 0 q 3.1,0 5.3,1.27 2.2,1.28 3.45,3.03 v 0 l -3.85,2.85 q -0.7,-0.9 -2.05,-1.78 -1.35,-0.87 -3.4,-0.87 v 0 q -1.25,0 -2.3,0.7 -1.05,0.7 -1.05,1.95 v 0 q 0,1.25 0.98,2.02 0.97,0.78 3.57,1.38 v 0 q 4.4,1.05 6.25,2.72 1.85,1.68 1.85,4.43 v 0 q 0,2.4 -1.22,4.12 -1.23,1.73 -3.2,2.65 -1.98,0.93 -4.28,0.93 z m 45.59,-15.25 h -13.75 v -4.7 h 13.75 z m 2.96,-14.6 h -16.85 l 1.14,-1.6 v 27 l -1.39,-0.8 h 17.1 V 0 H 524.89 V -34.05 H 545.6 Z M 571.94,0 h -6.05 l -6.25,-9.65 h 1.8 L 555.24,0 h -6.05 l 9.2,-13.45 v 2.5 l -9.2,-13.45 h 6.05 l 6.2,9.65 h -1.75 l 6.2,-9.65 h 6.05 l -9.2,13.45 v -2.5 z m 16.4,0.5 v 0 q -3.3,0 -5.75,-1.57 -2.45,-1.58 -3.83,-4.43 -1.37,-2.85 -1.37,-6.65 v 0 q 0,-3.85 1.37,-6.7 1.38,-2.85 3.83,-4.45 2.45,-1.6 5.75,-1.6 v 0 q 3.4,0 5.92,1.6 2.53,1.6 3.93,4.45 1.4,2.85 1.4,6.7 v 0 q 0,3.8 -1.4,6.65 -1.4,2.85 -3.93,4.43 -2.52,1.57 -5.92,1.57 z m -7.35,9 h -5 v -33.9 h 3.8 l 1.2,4.9 h -0.5 v 13.9 h 0.5 z m 6.6,-13.3 v 0 q 3.1,0 5,-2.3 1.9,-2.3 1.9,-6.05 v 0 q 0,-3.8 -1.9,-6.13 -1.9,-2.32 -5,-2.32 v 0 q -3.05,0 -4.95,2.3 -1.9,2.3 -1.9,6.1 v 0 q 0,3.8 1.9,6.1 1.9,2.3 4.95,2.3 z m 27.35,4.3 v 0 q -3.55,0 -6.25,-1.57 -2.7,-1.58 -4.2,-4.43 -1.5,-2.85 -1.5,-6.65 v 0 q 0,-3.85 1.5,-6.7 1.5,-2.85 4.2,-4.45 2.7,-1.6 6.25,-1.6 v 0 q 3.6,0 6.3,1.6 2.7,1.6 4.2,4.45 1.5,2.85 1.5,6.7 v 0 q 0,0.35 -0.03,0.72 -0.02,0.38 -0.07,0.68 v 0 h -19.1 v -4.3 h 15.5 l -1.4,2.9 q 0,-3.8 -1.7,-6.25 -1.7,-2.45 -5.2,-2.45 v 0 q -3.1,0 -4.95,1.97 -1.85,1.98 -1.85,5.18 v 0 2.6 q 0,3.35 1.8,5.32 1.8,1.98 5,1.98 v 0 q 2.95,0 4.55,-1.25 1.6,-1.25 2.8,-3.1 v 0 l 3.75,2.35 q -1.7,3.15 -4.38,4.73 -2.67,1.57 -6.72,1.57 z m 16.69,-24.9 h 3.8 l 1.2,6.6 V 0 h -5 z m 4.25,8.65 v 0 l -1.2,-0.55 v -3.65 l 0.45,-0.55 q 0.5,-0.9 1.58,-1.93 1.07,-1.02 2.52,-1.75 1.45,-0.72 2.95,-0.72 v 0 q 0.75,0 1.43,0.1 0.67,0.1 1.02,0.35 v 0 4.5 h -1.55 q -3.4,0 -4.95,1.02 -1.55,1.03 -2.25,3.18 z m 22,16.2 v 0 q -3.2,0 -5.07,-1.88 -1.88,-1.87 -1.88,-5.82 v 0 -16.85 -0.3 l 0.95,-5.5 h 4.05 v 22.75 q 0,1.4 0.73,2.1 0.72,0.7 1.82,0.7 v 0 q 0.85,0 1.5,-0.1 0.65,-0.1 1.15,-0.25 v 0 4.65 q -0.65,0.2 -1.42,0.35 -0.78,0.15 -1.83,0.15 z m 3.25,-20.25 h -13.95 v -4.6 h 13.95 z m 10.8,-4.6 V 0 h -5 v -24.4 z m -5.75,-7.5 v 0 q 0,-1.45 0.87,-2.37 0.88,-0.93 2.38,-0.93 v 0 q 1.45,0 2.35,0.93 0.9,0.92 0.9,2.37 v 0 q 0,1.4 -0.9,2.32 -0.9,0.93 -2.35,0.93 v 0 q -1.5,0 -2.38,-0.93 -0.87,-0.92 -0.87,-2.32 z m 20.05,32.4 v 0 q -2.55,0 -5.03,-1.2 -2.47,-1.2 -4.07,-4.1 v 0 l 3.8,-2.5 q 1.4,1.85 2.65,2.67 1.25,0.83 3.25,0.83 v 0 q 1.6,0 2.47,-0.83 0.88,-0.82 0.88,-2.02 v 0 q 0,-0.8 -0.43,-1.4 -0.42,-0.6 -1.47,-1.13 -1.05,-0.52 -3,-1.02 v 0 q -3.6,-0.95 -5.55,-2.5 -1.95,-1.55 -1.95,-4.9 v 0 q 0,-2 1,-3.65 1,-1.65 2.9,-2.65 1.9,-1 4.5,-1 v 0 q 3.1,0 5.3,1.27 2.2,1.28 3.45,3.03 v 0 l -3.85,2.85 q -0.7,-0.9 -2.05,-1.78 -1.35,-0.87 -3.4,-0.87 v 0 q -1.25,0 -2.3,0.7 -1.05,0.7 -1.05,1.95 v 0 q 0,1.25 0.97,2.02 0.98,0.78 3.58,1.38 v 0 q 4.4,1.05 6.25,2.72 1.85,1.68 1.85,4.43 v 0 q 0,2.4 -1.23,4.12 -1.22,1.73 -3.2,2.65 -1.97,0.93 -4.27,0.93 z m 24.24,0 v 0 q -3.55,0 -6.25,-1.57 -2.7,-1.58 -4.2,-4.43 -1.5,-2.85 -1.5,-6.65 v 0 q 0,-3.85 1.5,-6.7 1.5,-2.85 4.2,-4.45 2.7,-1.6 6.25,-1.6 v 0 q 3.6,0 6.3,1.6 2.7,1.6 4.2,4.45 1.5,2.85 1.5,6.7 v 0 q 0,0.35 -0.02,0.72 -0.03,0.38 -0.08,0.68 v 0 h -19.1 v -4.3 h 15.5 l -1.4,2.9 q 0,-3.8 -1.7,-6.25 -1.7,-2.45 -5.2,-2.45 v 0 q -3.1,0 -4.95,1.97 -1.85,1.98 -1.85,5.18 v 0 2.6 q 0,3.35 1.8,5.32 1.8,1.98 5,1.98 v 0 q 2.95,0 4.55,-1.25 1.6,-1.25 2.8,-3.1 v 0 l 3.75,2.35 q -1.7,3.15 -4.37,4.73 -2.68,1.57 -6.73,1.57 z"
                 opacity="1"
                 fill="#000000"
                 class="slogan-text-1"
                 data-fill-palette-color="secondary"
                 id="text-1"
                 style="fill:#ff0000" />
            </svg>
          </g>
        </svg>
      </g>
    </svg>
  </g>
  <g
     id="g10"
     style="fill:#ff0000"
     transform="translate(1.1055744,0.28448991)">
    <path
       d="m 132.09834,44.266295 c -7.82655,-3.687073 -11.83441,4.47055 -11.83441,4.47055 L 100.68934,80.808 96.753442,78.535711 110.80668,26.556831 c 0,0 1.85485,-8.6347 -6.26782,-10.310642 -9.029522,-1.976172 -11.702804,5.262252 -11.702804,5.262252 l -13.206012,50.662803 -4.398577,-1.213259 6.426159,-60.70406 c 0,0 0.546994,-9.45930465 -8.533938,-10.20987992 C 64.036586,-0.71475567 62.911751,8.5820958 62.911751,8.5820958 L 56.744696,69.292325 H 52.808802 L 48.223096,13.019744 c 0,0 -2.078991,-9.1652442 -10.020694,-9.1652442 -7.933478,0 -8.328301,10.7630442 -8.328301,10.7630442 l 2.019356,69.221547 -2.019356,2.216767 -15.046464,-11.840582 c 0,0 -7.0698017,-5.634455 -12.7268772,0.125439 -5.110081,5.200561 0.7094478,13.134039 0.7094478,13.134039 L 32.508312,133.38528 98.180563,137.30884 136.2337,55.078691 c 0,0 2.98585,-7.298059 -4.13536,-10.812396"
       fill="#000000"
       data-fill-palette-color="accent"
       id="path5"
       style="fill:#ff0000;stroke-width:2.05637" />
    <path
       id="polygon5"
       d="m 26.676445,141.3311 -7.071859,18.12896 v 10.96046 H 102.5812 v -24.23433 z"
       style="fill:#ff0000;stroke-width:2.05637" />
  </g>
  <rect
     width="1497.7888"
     height="461.431"
     fill="none"
     stroke="none"
     visibility="hidden"
     id="rect8"
     x="1.1055738"
     y="0.28449005"
     style="stroke-width:3.78689" />
  <g
     id="g16"
     transform="translate(166.89113,269.91574)"
     style="fill:#000000">
    <svg
       viewBox="0 0 395.52 123.31441"
       height="123.31441"
       width="395.51999"
       id="svg15"
       version="1.1"
       style="fill:#000000">
      <g
         id="g13"
         style="fill:#000000">
        <svg
           viewBox="0 0 395.52 88.12486"
           height="88.124863"
           width="395.51999"
           version="1.1"
           id="svg12"
           style="fill:#000000">
          <g
             id="g12"
             style="fill:#000000">
            <svg
               width="395.51999"
               viewBox="2.86 -37.84 222.41 49.56"
               height="88.124863"
               data-palette-color="#db3e25"
               version="1.1"
               id="svg11"
               style="fill:#000000">
              <path
                 d="m 18.19,-26 v 0 l -0.88,-0.15 q -1.34,-1.61 -2.93,-2.24 -1.59,-0.64 -2.98,-0.64 v 0 q -1.81,0 -2.94,0.69 -1.14,0.68 -1.66,1.67 -0.53,0.99 -0.53,1.91 v 0 q 0,1.54 1.12,2.64 1.11,1.1 2.85,2 1.75,0.91 3.7,1.83 1.95,0.93 3.7,2.13 1.74,1.19 2.86,2.87 1.11,1.67 1.11,4.09 v 0 q 0,1.63 -0.66,3.37 -0.66,1.73 -2.02,3.22 -1.35,1.49 -3.39,2.41 -2.04,0.93 -4.8,0.93 v 0 Q 9.13,0.73 7.03,0.09 4.93,-0.56 3.2,-1.66 v 0 Q 3.03,-1.76 2.94,-2.48 2.86,-3.2 2.86,-4.21 q 0,-1.01 0.08,-2.03 0.09,-1.01 0.26,-1.67 v 0 l 1,0.12 q 1.12,2.88 3.27,4.24 2.15,1.35 4.64,1.35 v 0 q 1.46,0 2.89,-0.78 1.43,-0.78 2.37,-2.09 0.94,-1.3 0.94,-2.84 v 0 q 0,-1.98 -1.1,-3.28 -1.1,-1.31 -2.83,-2.24 -1.73,-0.93 -3.67,-1.77 -1.95,-0.84 -3.68,-1.89 -1.73,-1.05 -2.83,-2.6 -1.1,-1.55 -1.1,-3.92 v 0 q 0,-1.15 0.53,-2.5 0.52,-1.36 1.67,-2.59 1.15,-1.23 3,-2.01 1.86,-0.78 4.54,-0.78 v 0 q 2.22,0 4.29,0.63 2.06,0.64 2.96,1.61 v 0 q 0.25,0.2 -0.08,0.84 -0.33,0.65 -0.87,1.35 -0.54,0.69 -0.95,1.06 z m 28.8,14.16 v 0 q 0,2.44 -0.89,4.69 -0.89,2.24 -2.43,4.02 -1.53,1.79 -3.54,2.82 -2,1.04 -4.22,1.04 v 0 q -3.08,0 -5.36,-1.51 -2.28,-1.51 -3.54,-4.13 -1.26,-2.61 -1.26,-5.93 v 0 q 0,-2.42 0.87,-4.68 0.87,-2.25 2.39,-4.05 1.53,-1.79 3.54,-2.83 2.02,-1.04 4.31,-1.04 v 0 q 3.08,0 5.35,1.52 2.27,1.51 3.53,4.12 1.25,2.61 1.25,5.96 z m -3.78,0.73 v 0 q 0,-2.59 -1.06,-4.77 -1.06,-2.19 -2.69,-3.53 -1.62,-1.34 -3.31,-1.34 v 0 q -2.46,0 -3.91,1.22 -1.46,1.22 -2.08,3.29 -0.62,2.08 -0.62,4.69 v 0 q 0,2.57 1.13,4.75 1.14,2.19 2.79,3.52 1.64,1.33 3.13,1.33 v 0 q 3.47,0 5.05,-2.49 1.57,-2.49 1.57,-6.67 z M 61.4,0 H 50.41 v -1.05 q 2.1,-0.37 2.88,-0.73 0.78,-0.37 0.78,-0.76 v 0 -29.1 q 0,-1.44 -0.28,-2.06 -0.28,-0.63 -1.02,-0.85 -0.75,-0.22 -2.12,-0.36 v 0 -0.98 q 1.76,-0.34 3.24,-0.76 1.48,-0.41 2.97,-1.19 v 0 l 0.87,0.83 v 34.47 q 0,0.37 0.83,0.76 0.83,0.39 2.84,0.73 v 0 z m 25.24,-22.71 v 1.05 q -1.47,0.35 -1.94,0.65 -0.48,0.31 -0.75,1.01 v 0 l -6.91,18.56 q -0.39,1.1 -1.52,1.56 -1.14,0.47 -1.77,0.61 v 0 L 65.69,-20 q -0.46,-1.14 -2.71,-1.66 v 0 -1.05 h 9.42 v 1.05 q -1.88,0.25 -2.47,0.57 -0.6,0.31 -0.28,1.09 v 0 l 6,15.65 5.64,-15.65 q 0.27,-0.73 -0.23,-1.06 -0.5,-0.33 -2.31,-0.6 v 0 -1.05 z m 20.45,9.11 v 0 q -0.43,0.49 -1.17,0.9 -0.73,0.42 -1.51,0.74 v 0 H 90.4 l 0.04,-2.2 h 11.72 q 0.56,0 0.75,-0.18 0.18,-0.19 0.18,-0.7 v 0 q 0,-0.66 -0.19,-1.63 -0.2,-0.98 -0.72,-1.95 -0.53,-0.96 -1.53,-1.61 -1,-0.64 -2.59,-0.64 v 0 q -1.95,0 -3.42,1.14 -1.46,1.15 -2.27,3.12 -0.8,1.96 -0.8,4.48 v 0 q 0,2.56 0.86,4.77 0.87,2.21 2.49,3.56 1.63,1.36 3.87,1.36 v 0 q 1.03,0 1.99,-0.21 0.97,-0.21 2.21,-0.91 1.25,-0.71 3.05,-2.2 v 0 q 0.32,0.17 0.57,0.49 0.24,0.31 0.34,0.51 v 0 q -2.17,2.37 -3.71,3.55 -1.54,1.19 -2.9,1.56 -1.35,0.38 -3.04,0.38 v 0 q -2.49,0 -4.63,-1.4 -2.15,-1.41 -3.46,-3.94 -1.3,-2.54 -1.3,-5.99 v 0 q 0,-3.29 1.42,-6.23 1.43,-2.95 3.97,-4.68 v 0 q 1.07,-0.76 2.61,-1.34 1.54,-0.59 2.83,-0.59 v 0 q 2.4,0 4.01,0.94 1.61,0.94 2.56,2.43 0.95,1.49 1.37,3.2 0.41,1.71 0.41,3.27 z M 127.23,-26 v 0 l -0.88,-0.15 q -1.34,-1.61 -2.92,-2.24 -1.59,-0.64 -2.98,-0.64 v 0 q -1.81,0 -2.95,0.69 -1.13,0.68 -1.66,1.67 -0.52,0.99 -0.52,1.91 v 0 q 0,1.54 1.11,2.64 1.11,1.1 2.86,2 1.74,0.91 3.7,1.83 1.95,0.93 3.69,2.13 1.75,1.19 2.86,2.87 1.11,1.67 1.11,4.09 v 0 q 0,1.63 -0.66,3.37 -0.66,1.73 -2.01,3.22 -1.36,1.49 -3.4,2.41 -2.03,0.93 -4.79,0.93 v 0 q -1.61,0 -3.71,-0.64 -2.1,-0.65 -3.84,-1.75 v 0 q -0.17,-0.1 -0.25,-0.82 -0.09,-0.72 -0.09,-1.73 0,-1.01 0.09,-2.03 0.08,-1.01 0.25,-1.67 v 0 l 1,0.12 q 1.13,2.88 3.28,4.24 2.14,1.35 4.63,1.35 v 0 q 1.47,0 2.9,-0.78 1.43,-0.78 2.37,-2.09 0.94,-1.3 0.94,-2.84 v 0 q 0,-1.98 -1.1,-3.28 -1.1,-1.31 -2.83,-2.24 -1.74,-0.93 -3.68,-1.77 -1.94,-0.84 -3.67,-1.89 -1.74,-1.05 -2.84,-2.6 -1.09,-1.55 -1.09,-3.92 v 0 q 0,-1.15 0.52,-2.5 0.53,-1.36 1.67,-2.59 1.15,-1.23 3.01,-2.01 1.85,-0.78 4.54,-0.78 v 0 q 2.22,0 4.28,0.63 2.06,0.64 2.97,1.61 v 0 q 0.24,0.2 -0.09,0.84 -0.33,0.65 -0.86,1.35 -0.54,0.69 -0.96,1.06 z m 20.83,26.73 v 0 q -1.42,0 -3.24,-0.82 -1.82,-0.81 -3.55,-2.3 v 0 11.55 q 0,0.39 0.91,0.78 0.92,0.39 3.22,0.73 v 0 1.05 h -11.21 v -1.05 q 1.61,-0.39 2.51,-0.75 0.91,-0.35 0.91,-0.76 v 0 -26.52 q 0,-1.22 -0.21,-1.88 -0.21,-0.66 -0.93,-0.93 -0.72,-0.26 -2.28,-0.34 v 0 -0.97 q 1.68,-0.37 3.06,-0.82 1.38,-0.45 2.8,-1.14 v 0 l 0.85,0.86 0.22,4.83 q 2.44,-2.93 4.81,-4.31 2.37,-1.38 3.76,-1.38 v 0 q 3.35,0 5.52,3.04 2.17,3.04 2.17,8.39 v 0 q 0,2.12 -0.78,4.36 -0.78,2.23 -2.1,4.13 -1.32,1.91 -2.99,3.08 -1.67,1.17 -3.45,1.17 z m 0,-21.12 v 0 q -0.88,0 -2.76,1.18 -1.88,1.17 -4.03,4.32 v 0 9.69 q 2.17,1.64 3.8,2.2 1.62,0.56 2.94,0.56 v 0 q 2.61,0 4.34,-2.03 1.74,-2.02 1.74,-5.93 v 0 q 0,-2.86 -0.86,-5.12 -0.85,-2.25 -2.22,-3.56 -1.37,-1.31 -2.95,-1.31 z m 33.51,17.29 0.37,1.1 q -2.07,1.41 -3.43,2.07 -1.35,0.66 -2.04,0.66 v 0 q -0.85,0 -1.39,-1.28 -0.54,-1.28 -0.54,-3.45 v 0 -13.14 q 0,-1.66 -0.85,-2.79 -0.86,-1.14 -3.25,-1.07 v 0 q -1.56,0.03 -2.84,0.94 -1.28,0.92 -1.14,2.38 v 0 q 0.05,0.3 -0.83,0.66 -0.88,0.37 -1.89,0.6 -1.01,0.23 -1.43,0.14 v 0 l -0.34,-0.96 q 0.76,-1.63 2.49,-3.04 1.73,-1.4 3.92,-2.28 2.18,-0.88 4.23,-0.88 v 0 q 2.69,0 4.14,1.41 1.46,1.4 1.46,3.91 v 0 13.77 q 0,1.91 0.97,1.91 v 0 q 0.34,0 0.88,-0.14 0.54,-0.13 1.51,-0.52 z m -6.78,-10.65 v 1.84 q -2.81,0.44 -4.37,0.87 -1.57,0.44 -2.37,0.92 -0.81,0.48 -1.34,1.04 v 0 q -0.61,0.66 -1.02,1.5 -0.4,0.84 -0.4,1.99 v 0 q 0,1.29 0.48,1.98 0.47,0.68 1.11,0.92 0.63,0.25 1.05,0.25 v 0 q 1.51,0 3.22,-0.81 1.71,-0.8 3.64,-2.51 v 0 l 0.19,1.8 q -2.29,2.47 -4.56,3.58 -2.27,1.11 -3.93,1.11 v 0 q -1.18,0 -2.37,-0.52 -1.2,-0.53 -2.02,-1.7 -0.81,-1.17 -0.81,-3.05 v 0 q 0,-1.88 0.64,-3.11 0.65,-1.24 1.55,-2.14 v 0 q 0.81,-0.81 1.96,-1.49 1.14,-0.68 3.33,-1.29 2.18,-0.61 6.02,-1.18 z m 27.05,8.11 0.95,1 q -2.13,2.49 -3.6,3.63 -1.48,1.13 -2.75,1.44 -1.27,0.3 -2.81,0.3 v 0 q -2.37,0 -4.53,-1.38 -2.16,-1.38 -3.51,-3.98 -1.36,-2.6 -1.36,-6.21 v 0 q 0,-3.52 1.65,-6.37 1.65,-2.86 4.48,-4.54 2.83,-1.69 6.32,-1.69 v 0 q 1.62,0 3.26,0.54 1.65,0.54 2.48,1.39 v 0 q 0.07,0.39 -0.16,1.17 -0.23,0.78 -0.57,1.58 -0.34,0.79 -0.66,1.26 v 0 l -0.9,-0.25 q -0.39,-0.85 -1.76,-1.93 -1.37,-1.07 -3.88,-1.07 v 0 q -1.71,0 -3.21,1.01 -1.51,1.01 -2.45,3.05 -0.93,2.04 -0.93,5.09 v 0 q 0,2.76 1.06,4.83 1.06,2.06 2.77,3.19 1.71,1.14 3.66,1.14 v 0 q 0.93,0 1.71,-0.16 0.78,-0.16 1.85,-0.83 1.08,-0.67 2.89,-2.21 z m 23.43,-7.96 v 0 q -0.44,0.49 -1.17,0.9 -0.73,0.42 -1.52,0.74 v 0 h -14.01 l 0.05,-2.2 h 11.72 q 0.56,0 0.74,-0.18 0.19,-0.19 0.19,-0.7 v 0 q 0,-0.66 -0.2,-1.63 -0.19,-0.98 -0.72,-1.95 -0.52,-0.96 -1.52,-1.61 -1.01,-0.64 -2.59,-0.64 v 0 q -1.96,0 -3.42,1.14 -1.47,1.15 -2.27,3.12 -0.81,1.96 -0.81,4.48 v 0 q 0,2.56 0.87,4.77 0.87,2.21 2.49,3.56 1.62,1.36 3.87,1.36 v 0 q 1.03,0 1.99,-0.21 0.96,-0.21 2.21,-0.91 1.24,-0.71 3.05,-2.2 v 0 q 0.32,0.17 0.56,0.49 0.25,0.31 0.34,0.51 v 0 q -2.17,2.37 -3.71,3.55 -1.54,1.19 -2.89,1.56 -1.35,0.38 -3.04,0.38 v 0 q -2.49,0 -4.64,-1.4 -2.15,-1.41 -3.45,-3.94 -1.31,-2.54 -1.31,-5.99 v 0 q 0,-3.29 1.43,-6.23 1.43,-2.95 3.97,-4.68 v 0 q 1.07,-0.76 2.61,-1.34 1.54,-0.59 2.83,-0.59 v 0 q 2.39,0 4,0.94 1.62,0.94 2.57,2.43 0.95,1.49 1.37,3.2 0.41,1.71 0.41,3.27 z"
                 opacity="1"
                 fill="#000000"
                 class="wordmark-text-0"
                 data-fill-palette-color="primary"
                 id="path11"
                 style="fill:#000000" />
            </svg>
          </g>
        </svg>
      </g>
      <g
         transform="translate(0,108.92902)"
         id="g15"
         style="fill:#000000">
        <svg
           viewBox="0 0 232.20979 14.385389"
           height="14.385389"
           width="232.20979"
           version="1.1"
           id="svg14"
           style="fill:#000000">
          <g
             id="g14"
             style="fill:#000000">
            <svg
               width="232.20979"
               viewBox="1 -35.2 721.47 44.7"
               height="14.385389"
               data-palette-color="#db3e25"
               version="1.1"
               id="svg13"
               style="fill:#000000">
              <path
                 d="M 38.05,0 H 32.2 l -9.35,-30.35 -1.15,-3.7 h 4.9 l 9.55,31.55 -2.2,-0.5 8.3,-31.05 H 47.3 Z M 16.1,0 H 10.25 L 1,-34.05 h 5.05 l 8.3,31.05 -2.2,0.5 9.55,-31.55 h 4.9 l -1.15,3.7 z m 40.4,0 h -5 v -34.05 h 5 z m 16.35,0 h -5 v -15.6 q 0,-2.6 -1.18,-3.5 Q 65.5,-20 63.9,-20 v 0 q -1.6,0 -3.25,0.65 -1.65,0.65 -2.95,1.75 -1.3,1.1 -2,2.45 v 0 l -0.6,-4.8 q 1.4,-1.6 3.05,-2.7 1.65,-1.1 3.5,-1.68 1.85,-0.57 3.8,-0.57 v 0 q 2.6,0 4.1,0.87 1.5,0.88 2.2,2.35 0.7,1.48 0.9,3.33 0.2,1.85 0.2,3.8 v 0 z M 89.5,0.5 v 0 q -3.55,0 -6.25,-1.57 -2.7,-1.58 -4.2,-4.43 -1.5,-2.85 -1.5,-6.65 v 0 q 0,-3.85 1.5,-6.7 1.5,-2.85 4.2,-4.45 2.7,-1.6 6.25,-1.6 v 0 q 3.6,0 6.3,1.6 2.7,1.6 4.2,4.45 1.5,2.85 1.5,6.7 v 0 q 0,0.35 -0.03,0.72 -0.02,0.38 -0.07,0.68 v 0 H 82.3 v -4.3 h 15.5 l -1.4,2.9 q 0,-3.8 -1.7,-6.25 -1.7,-2.45 -5.2,-2.45 v 0 q -3.1,0 -4.95,1.97 -1.85,1.98 -1.85,5.18 v 0 2.6 q 0,3.35 1.8,5.32 1.8,1.98 5,1.98 v 0 q 2.95,0 4.55,-1.25 1.6,-1.25 2.8,-3.1 v 0 l 3.75,2.35 Q 98.9,-2.65 96.22,-1.07 93.55,0.5 89.5,0.5 Z m 16.69,-24.9 h 3.8 l 1.2,6.6 V 0 h -5 z m 4.25,8.65 v 0 l -1.2,-0.55 v -3.65 l 0.45,-0.55 q 0.5,-0.9 1.58,-1.93 1.07,-1.02 2.52,-1.75 1.45,-0.72 2.95,-0.72 v 0 q 0.75,0 1.43,0.1 0.67,0.1 1.02,0.35 v 0 4.5 h -1.55 q -3.4,0 -4.95,1.02 -1.55,1.03 -2.25,3.18 z M 133.89,0.5 v 0 q -3.55,0 -6.25,-1.57 -2.7,-1.58 -4.2,-4.43 -1.5,-2.85 -1.5,-6.65 v 0 q 0,-3.85 1.5,-6.7 1.5,-2.85 4.2,-4.45 2.7,-1.6 6.25,-1.6 v 0 q 3.6,0 6.3,1.6 2.7,1.6 4.2,4.45 1.5,2.85 1.5,6.7 v 0 q 0,0.35 -0.02,0.72 -0.03,0.38 -0.08,0.68 v 0 h -19.1 v -4.3 h 15.5 l -1.4,2.9 q 0,-3.8 -1.7,-6.25 -1.7,-2.45 -5.2,-2.45 v 0 q -3.1,0 -4.95,1.97 -1.85,1.98 -1.85,5.18 v 0 2.6 q 0,3.35 1.8,5.32 1.8,1.98 5,1.98 v 0 q 2.95,0 4.55,-1.25 1.6,-1.25 2.8,-3.1 v 0 l 3.75,2.35 q -1.7,3.15 -4.37,4.73 -2.68,1.57 -6.73,1.57 z m 45.2,0 v 0 q -5.15,0 -9.03,-2.28 -3.87,-2.27 -6.02,-6.25 -2.15,-3.97 -2.15,-8.97 v 0 q 0,-3.8 1.3,-7 1.3,-3.2 3.62,-5.55 2.33,-2.35 5.45,-3.65 3.13,-1.3 6.83,-1.3 v 0 q 5.8,0 9.5,2.37 3.7,2.38 6.05,6.38 v 0 l -4.9,1.45 q -2.3,-3.15 -4.93,-4.28 -2.62,-1.12 -5.72,-1.12 v 0 q -3.45,0 -6.18,1.65 -2.72,1.65 -4.32,4.5 -1.6,2.85 -1.6,6.55 v 0 q 0,3.65 1.6,6.52 1.6,2.88 4.32,4.53 2.73,1.65 6.18,1.65 v 0 q 3.1,0 5.72,-1.13 2.63,-1.12 4.93,-4.27 v 0 l 4.9,1.45 q -2.35,4 -6.05,6.37 -3.7,2.38 -9.5,2.38 z m 27.69,0 v 0 q -2.75,0 -4.35,-0.88 -1.6,-0.87 -2.35,-2.35 -0.75,-1.47 -0.97,-3.32 -0.23,-1.85 -0.23,-3.8 v 0 -14.55 h 5 v 15.6 q 0,2.6 1.18,3.5 1.17,0.9 2.77,0.9 v 0 q 1.65,0 3.28,-0.65 1.62,-0.65 2.95,-1.78 1.32,-1.12 1.97,-2.42 v 0 2.8 h -0.8 V -24.4 h 5 V 0 h -3.8 l -1.05,-4.3 1.25,-0.15 q -1.3,1.55 -2.9,2.67 -1.6,1.13 -3.35,1.7 -1.75,0.58 -3.6,0.58 z m 19.85,-24.9 h 3.8 l 1.2,6.6 V 0 h -5 z m 4.25,8.65 v 0 l -1.2,-0.55 v -3.65 l 0.45,-0.55 q 0.5,-0.9 1.58,-1.93 1.07,-1.02 2.52,-1.75 1.45,-0.72 2.95,-0.72 v 0 q 0.75,0 1.43,0.1 0.67,0.1 1.02,0.35 v 0 4.5 h -1.55 q -3.4,0 -4.95,1.02 -1.55,1.03 -2.25,3.18 z m 18.1,-8.65 V 0 h -5 v -24.4 z m -5.75,-7.5 v 0 q 0,-1.45 0.87,-2.37 0.88,-0.93 2.38,-0.93 v 0 q 1.45,0 2.35,0.93 0.9,0.92 0.9,2.37 v 0 q 0,1.4 -0.9,2.32 -0.9,0.93 -2.35,0.93 v 0 q -1.5,0 -2.38,-0.93 -0.87,-0.92 -0.87,-2.32 z m 23.25,32.4 v 0 q -3.7,0 -6.53,-1.57 -2.82,-1.58 -4.37,-4.43 -1.55,-2.85 -1.55,-6.65 v 0 q 0,-3.85 1.55,-6.7 1.55,-2.85 4.37,-4.45 2.83,-1.6 6.53,-1.6 v 0 q 3.75,0 6.55,1.6 2.8,1.6 4.37,4.45 1.58,2.85 1.58,6.7 v 0 q 0,3.8 -1.58,6.65 -1.57,2.85 -4.37,4.43 -2.8,1.57 -6.55,1.57 z m 0,-4.8 v 0 q 3.35,0 5.37,-2.18 2.03,-2.17 2.03,-5.67 v 0 q 0,-3.55 -2.03,-5.75 -2.02,-2.2 -5.37,-2.2 v 0 q -3.3,0 -5.33,2.17 -2.02,2.18 -2.02,5.73 v 0 q 0,3.55 2.02,5.72 2.03,2.18 5.33,2.18 z m 25.24,4.8 v 0 q -2.55,0 -5.02,-1.2 -2.48,-1.2 -4.08,-4.1 v 0 l 3.8,-2.5 q 1.4,1.85 2.65,2.67 1.25,0.83 3.25,0.83 v 0 q 1.6,0 2.48,-0.83 0.87,-0.82 0.87,-2.02 v 0 q 0,-0.8 -0.42,-1.4 -0.43,-0.6 -1.48,-1.13 -1.05,-0.52 -3,-1.02 v 0 q -3.6,-0.95 -5.55,-2.5 -1.95,-1.55 -1.95,-4.9 v 0 q 0,-2 1,-3.65 1,-1.65 2.9,-2.65 1.9,-1 4.5,-1 v 0 q 3.1,0 5.3,1.27 2.2,1.28 3.45,3.03 v 0 l -3.85,2.85 q -0.7,-0.9 -2.05,-1.78 -1.35,-0.87 -3.4,-0.87 v 0 q -1.25,0 -2.3,0.7 -1.05,0.7 -1.05,1.95 v 0 q 0,1.25 0.98,2.02 0.97,0.78 3.57,1.38 v 0 q 4.4,1.05 6.25,2.72 1.85,1.68 1.85,4.43 v 0 q 0,2.4 -1.22,4.12 -1.23,1.73 -3.2,2.65 -1.98,0.93 -4.28,0.93 z m 18.9,-24.9 V 0 h -5 v -24.4 z m -5.75,-7.5 v 0 q 0,-1.45 0.88,-2.37 0.87,-0.93 2.37,-0.93 v 0 q 1.45,0 2.35,0.93 0.9,0.92 0.9,2.37 v 0 q 0,1.4 -0.9,2.32 -0.9,0.93 -2.35,0.93 v 0 q -1.5,0 -2.37,-0.93 -0.88,-0.92 -0.88,-2.32 z m 21.25,32.35 v 0 q -3.2,0 -5.08,-1.88 -1.87,-1.87 -1.87,-5.82 v 0 -16.85 -0.3 l 0.95,-5.5 h 4.05 v 22.75 q 0,1.4 0.72,2.1 0.73,0.7 1.83,0.7 v 0 q 0.85,0 1.5,-0.1 0.65,-0.1 1.15,-0.25 v 0 4.65 q -0.65,0.2 -1.43,0.35 -0.77,0.15 -1.82,0.15 z m 3.25,-20.25 h -13.95 v -4.6 h 13.95 z m 17.05,14.25 -4.15,2.45 -9.65,-21.3 h 5.25 z m -5.3,15.05 h -5.25 l 15.4,-33.9 h 5.25 z M 377.01,0 h -5.25 l 6.25,-34.05 h 4.45 l 9.35,24.85 h 0.15 l 9.35,-24.85 h 4.45 L 412.01,0 h -5.25 l -2.75,-16.2 q -0.6,-3.5 -1,-6.93 -0.4,-3.42 -0.5,-6.87 v 0 h 1.25 q -0.9,4.15 -1.87,7.3 -0.98,3.15 -2.23,6.5 v 0 l -5.85,15.65 h -3.85 l -5.85,-15.65 q -1.25,-3.4 -2.22,-6.53 -0.98,-3.12 -1.88,-7.27 v 0 h 1.25 q -0.1,3.45 -0.5,6.87 -0.4,3.43 -1,6.93 v 0 z m 50.45,0.5 v 0 q -3.55,0 -6.25,-1.57 -2.7,-1.58 -4.2,-4.43 -1.5,-2.85 -1.5,-6.65 v 0 q 0,-3.85 1.5,-6.7 1.5,-2.85 4.2,-4.45 2.7,-1.6 6.25,-1.6 v 0 q 3.6,0 6.3,1.6 2.7,1.6 4.2,4.45 1.5,2.85 1.5,6.7 v 0 q 0,0.35 -0.03,0.72 -0.02,0.38 -0.07,0.68 v 0 h -19.1 v -4.3 h 15.5 l -1.4,2.9 q 0,-3.8 -1.7,-6.25 -1.7,-2.45 -5.2,-2.45 v 0 q -3.1,0 -4.95,1.97 -1.85,1.98 -1.85,5.18 v 0 2.6 q 0,3.35 1.8,5.32 1.8,1.98 5,1.98 v 0 q 2.95,0 4.55,-1.25 1.6,-1.25 2.8,-3.1 v 0 l 3.75,2.35 q -1.7,3.15 -4.38,4.73 -2.67,1.57 -6.72,1.57 z m 27.15,0 v 0 q -3.55,0 -6.25,-1.57 -2.7,-1.58 -4.2,-4.43 -1.5,-2.85 -1.5,-6.65 v 0 q 0,-3.85 1.5,-6.7 1.5,-2.85 4.2,-4.45 2.7,-1.6 6.25,-1.6 v 0 q 3.6,0 6.3,1.6 2.7,1.6 4.2,4.45 1.5,2.85 1.5,6.7 v 0 q 0,0.35 -0.03,0.72 -0.02,0.38 -0.07,0.68 v 0 h -19.1 v -4.3 h 15.5 l -1.4,2.9 q 0,-3.8 -1.7,-6.25 -1.7,-2.45 -5.2,-2.45 v 0 q -3.1,0 -4.95,1.97 -1.85,1.98 -1.85,5.18 v 0 2.6 q 0,3.35 1.8,5.32 1.8,1.98 5,1.98 v 0 q 2.95,0 4.55,-1.25 1.6,-1.25 2.8,-3.1 v 0 l 3.75,2.35 q -1.7,3.15 -4.38,4.73 -2.67,1.57 -6.72,1.57 z M 480.3,0.45 v 0 q -3.2,0 -5.07,-1.88 -1.88,-1.87 -1.88,-5.82 v 0 -16.85 -0.3 l 0.95,-5.5 h 4.05 v 22.75 q 0,1.4 0.73,2.1 0.72,0.7 1.82,0.7 v 0 q 0.85,0 1.5,-0.1 0.65,-0.1 1.15,-0.25 v 0 4.65 q -0.65,0.2 -1.42,0.35 -0.78,0.15 -1.83,0.15 z m 3.25,-20.25 H 469.6 v -4.6 h 13.95 z m 13.5,20.3 v 0 q -2.55,0 -5.02,-1.2 -2.48,-1.2 -4.08,-4.1 v 0 l 3.8,-2.5 q 1.4,1.85 2.65,2.67 1.25,0.83 3.25,0.83 v 0 q 1.6,0 2.48,-0.83 0.87,-0.82 0.87,-2.02 v 0 q 0,-0.8 -0.42,-1.4 -0.43,-0.6 -1.48,-1.13 -1.05,-0.52 -3,-1.02 v 0 q -3.6,-0.95 -5.55,-2.5 -1.95,-1.55 -1.95,-4.9 v 0 q 0,-2 1,-3.65 1,-1.65 2.9,-2.65 1.9,-1 4.5,-1 v 0 q 3.1,0 5.3,1.27 2.2,1.28 3.45,3.03 v 0 l -3.85,2.85 q -0.7,-0.9 -2.05,-1.78 -1.35,-0.87 -3.4,-0.87 v 0 q -1.25,0 -2.3,0.7 -1.05,0.7 -1.05,1.95 v 0 q 0,1.25 0.98,2.02 0.97,0.78 3.57,1.38 v 0 q 4.4,1.05 6.25,2.72 1.85,1.68 1.85,4.43 v 0 q 0,2.4 -1.22,4.12 -1.23,1.73 -3.2,2.65 -1.98,0.93 -4.28,0.93 z m 45.59,-15.25 h -13.75 v -4.7 h 13.75 z m 2.96,-14.6 h -16.85 l 1.14,-1.6 v 27 l -1.39,-0.8 h 17.1 V 0 H 524.89 V -34.05 H 545.6 Z M 571.94,0 h -6.05 l -6.25,-9.65 h 1.8 L 555.24,0 h -6.05 l 9.2,-13.45 v 2.5 l -9.2,-13.45 h 6.05 l 6.2,9.65 h -1.75 l 6.2,-9.65 h 6.05 l -9.2,13.45 v -2.5 z m 16.4,0.5 v 0 q -3.3,0 -5.75,-1.57 -2.45,-1.58 -3.83,-4.43 -1.37,-2.85 -1.37,-6.65 v 0 q 0,-3.85 1.37,-6.7 1.38,-2.85 3.83,-4.45 2.45,-1.6 5.75,-1.6 v 0 q 3.4,0 5.92,1.6 2.53,1.6 3.93,4.45 1.4,2.85 1.4,6.7 v 0 q 0,3.8 -1.4,6.65 -1.4,2.85 -3.93,4.43 -2.52,1.57 -5.92,1.57 z m -7.35,9 h -5 v -33.9 h 3.8 l 1.2,4.9 h -0.5 v 13.9 h 0.5 z m 6.6,-13.3 v 0 q 3.1,0 5,-2.3 1.9,-2.3 1.9,-6.05 v 0 q 0,-3.8 -1.9,-6.13 -1.9,-2.32 -5,-2.32 v 0 q -3.05,0 -4.95,2.3 -1.9,2.3 -1.9,6.1 v 0 q 0,3.8 1.9,6.1 1.9,2.3 4.95,2.3 z m 27.35,4.3 v 0 q -3.55,0 -6.25,-1.57 -2.7,-1.58 -4.2,-4.43 -1.5,-2.85 -1.5,-6.65 v 0 q 0,-3.85 1.5,-6.7 1.5,-2.85 4.2,-4.45 2.7,-1.6 6.25,-1.6 v 0 q 3.6,0 6.3,1.6 2.7,1.6 4.2,4.45 1.5,2.85 1.5,6.7 v 0 q 0,0.35 -0.03,0.72 -0.02,0.38 -0.07,0.68 v 0 h -19.1 v -4.3 h 15.5 l -1.4,2.9 q 0,-3.8 -1.7,-6.25 -1.7,-2.45 -5.2,-2.45 v 0 q -3.1,0 -4.95,1.97 -1.85,1.98 -1.85,5.18 v 0 2.6 q 0,3.35 1.8,5.32 1.8,1.98 5,1.98 v 0 q 2.95,0 4.55,-1.25 1.6,-1.25 2.8,-3.1 v 0 l 3.75,2.35 q -1.7,3.15 -4.38,4.73 -2.67,1.57 -6.72,1.57 z m 16.69,-24.9 h 3.8 l 1.2,6.6 V 0 h -5 z m 4.25,8.65 v 0 l -1.2,-0.55 v -3.65 l 0.45,-0.55 q 0.5,-0.9 1.58,-1.93 1.07,-1.02 2.52,-1.75 1.45,-0.72 2.95,-0.72 v 0 q 0.75,0 1.43,0.1 0.67,0.1 1.02,0.35 v 0 4.5 h -1.55 q -3.4,0 -4.95,1.02 -1.55,1.03 -2.25,3.18 z m 22,16.2 v 0 q -3.2,0 -5.07,-1.88 -1.88,-1.87 -1.88,-5.82 v 0 -16.85 -0.3 l 0.95,-5.5 h 4.05 v 22.75 q 0,1.4 0.73,2.1 0.72,0.7 1.82,0.7 v 0 q 0.85,0 1.5,-0.1 0.65,-0.1 1.15,-0.25 v 0 4.65 q -0.65,0.2 -1.42,0.35 -0.78,0.15 -1.83,0.15 z m 3.25,-20.25 h -13.95 v -4.6 h 13.95 z m 10.8,-4.6 V 0 h -5 v -24.4 z m -5.75,-7.5 v 0 q 0,-1.45 0.87,-2.37 0.88,-0.93 2.38,-0.93 v 0 q 1.45,0 2.35,0.93 0.9,0.92 0.9,2.37 v 0 q 0,1.4 -0.9,2.32 -0.9,0.93 -2.35,0.93 v 0 q -1.5,0 -2.38,-0.93 -0.87,-0.92 -0.87,-2.32 z m 20.05,32.4 v 0 q -2.55,0 -5.03,-1.2 -2.47,-1.2 -4.07,-4.1 v 0 l 3.8,-2.5 q 1.4,1.85 2.65,2.67 1.25,0.83 3.25,0.83 v 0 q 1.6,0 2.47,-0.83 0.88,-0.82 0.88,-2.02 v 0 q 0,-0.8 -0.43,-1.4 -0.42,-0.6 -1.47,-1.13 -1.05,-0.52 -3,-1.02 v 0 q -3.6,-0.95 -5.55,-2.5 -1.95,-1.55 -1.95,-4.9 v 0 q 0,-2 1,-3.65 1,-1.65 2.9,-2.65 1.9,-1 4.5,-1 v 0 q 3.1,0 5.3,1.27 2.2,1.28 3.45,3.03 v 0 l -3.85,2.85 q -0.7,-0.9 -2.05,-1.78 -1.35,-0.87 -3.4,-0.87 v 0 q -1.25,0 -2.3,0.7 -1.05,0.7 -1.05,1.95 v 0 q 0,1.25 0.97,2.02 0.98,0.78 3.58,1.38 v 0 q 4.4,1.05 6.25,2.72 1.85,1.68 1.85,4.43 v 0 q 0,2.4 -1.23,4.12 -1.22,1.73 -3.2,2.65 -1.97,0.93 -4.27,0.93 z m 24.24,0 v 0 q -3.55,0 -6.25,-1.57 -2.7,-1.58 -4.2,-4.43 -1.5,-2.85 -1.5,-6.65 v 0 q 0,-3.85 1.5,-6.7 1.5,-2.85 4.2,-4.45 2.7,-1.6 6.25,-1.6 v 0 q 3.6,0 6.3,1.6 2.7,1.6 4.2,4.45 1.5,2.85 1.5,6.7 v 0 q 0,0.35 -0.02,0.72 -0.03,0.38 -0.08,0.68 v 0 h -19.1 v -4.3 h 15.5 l -1.4,2.9 q 0,-3.8 -1.7,-6.25 -1.7,-2.45 -5.2,-2.45 v 0 q -3.1,0 -4.95,1.97 -1.85,1.98 -1.85,5.18 v 0 2.6 q 0,3.35 1.8,5.32 1.8,1.98 5,1.98 v 0 q 2.95,0 4.55,-1.25 1.6,-1.25 2.8,-3.1 v 0 l 3.75,2.35 q -1.7,3.15 -4.37,4.73 -2.68,1.57 -6.73,1.57 z"
                 opacity="1"
                 fill="#000000"
                 class="slogan-text-1"
                 data-fill-palette-color="secondary"
                 id="path13"
                 style="fill:#000000" />
            </svg>
          </g>
        </svg>
      </g>
    </svg>
  </g>
  <g
     id="g17"
     style="fill:#000000"
     transform="translate(1.1055744,230.99999)">
    <path
       d="m 132.09834,44.266295 c -7.82655,-3.687073 -11.83441,4.47055 -11.83441,4.47055 L 100.68934,80.808 96.753442,78.535711 110.80668,26.556831 c 0,0 1.85485,-8.6347 -6.26782,-10.310642 -9.029522,-1.976172 -11.702804,5.262252 -11.702804,5.262252 l -13.206012,50.662803 -4.398577,-1.213259 6.426159,-60.70406 c 0,0 0.546994,-9.45930465 -8.533938,-10.20987992 C 64.036586,-0.71475567 62.911751,8.5820958 62.911751,8.5820958 L 56.744696,69.292325 H 52.808802 L 48.223096,13.019744 c 0,0 -2.078991,-9.1652442 -10.020694,-9.1652442 -7.933478,0 -8.328301,10.7630442 -8.328301,10.7630442 l 2.019356,69.221547 -2.019356,2.216767 -15.046464,-11.840582 c 0,0 -7.0698017,-5.634455 -12.7268772,0.125439 -5.110081,5.200561 0.7094478,13.134039 0.7094478,13.134039 L 32.508312,133.38528 98.180563,137.30884 136.2337,55.078691 c 0,0 2.98585,-7.298059 -4.13536,-10.812396"
       fill="#000000"
       data-fill-palette-color="accent"
       id="path16"
       style="fill:#000000;stroke-width:2.05637" />
    <path
       id="path17"
       d="m 26.676445,141.3311 -7.071859,18.12896 v 10.96046 H 102.5812 v -24.23433 z"
       style="fill:#000000;stroke-width:2.05637" />
  </g>
  <g
     id="g23"
     transform="translate(166.89113,500.63124)"
     style="fill:#f2f2f2">
    <svg
       viewBox="0 0 395.52 123.31441"
       height="123.31441"
       width="395.51999"
       id="svg22"
       version="1.1"
       style="fill:#f2f2f2">
      <g
         id="g20"
         style="fill:#f2f2f2">
        <svg
           viewBox="0 0 395.52 88.12486"
           height="88.124863"
           width="395.51999"
           version="1.1"
           id="svg19"
           style="fill:#f2f2f2">
          <g
             id="g19"
             style="fill:#f2f2f2">
            <svg
               width="395.51999"
               viewBox="2.86 -37.84 222.41 49.56"
               height="88.124863"
               data-palette-color="#db3e25"
               version="1.1"
               id="svg18"
               style="fill:#f2f2f2">
              <path
                 d="m 18.19,-26 v 0 l -0.88,-0.15 q -1.34,-1.61 -2.93,-2.24 -1.59,-0.64 -2.98,-0.64 v 0 q -1.81,0 -2.94,0.69 -1.14,0.68 -1.66,1.67 -0.53,0.99 -0.53,1.91 v 0 q 0,1.54 1.12,2.64 1.11,1.1 2.85,2 1.75,0.91 3.7,1.83 1.95,0.93 3.7,2.13 1.74,1.19 2.86,2.87 1.11,1.67 1.11,4.09 v 0 q 0,1.63 -0.66,3.37 -0.66,1.73 -2.02,3.22 -1.35,1.49 -3.39,2.41 -2.04,0.93 -4.8,0.93 v 0 Q 9.13,0.73 7.03,0.09 4.93,-0.56 3.2,-1.66 v 0 Q 3.03,-1.76 2.94,-2.48 2.86,-3.2 2.86,-4.21 q 0,-1.01 0.08,-2.03 0.09,-1.01 0.26,-1.67 v 0 l 1,0.12 q 1.12,2.88 3.27,4.24 2.15,1.35 4.64,1.35 v 0 q 1.46,0 2.89,-0.78 1.43,-0.78 2.37,-2.09 0.94,-1.3 0.94,-2.84 v 0 q 0,-1.98 -1.1,-3.28 -1.1,-1.31 -2.83,-2.24 -1.73,-0.93 -3.67,-1.77 -1.95,-0.84 -3.68,-1.89 -1.73,-1.05 -2.83,-2.6 -1.1,-1.55 -1.1,-3.92 v 0 q 0,-1.15 0.53,-2.5 0.52,-1.36 1.67,-2.59 1.15,-1.23 3,-2.01 1.86,-0.78 4.54,-0.78 v 0 q 2.22,0 4.29,0.63 2.06,0.64 2.96,1.61 v 0 q 0.25,0.2 -0.08,0.84 -0.33,0.65 -0.87,1.35 -0.54,0.69 -0.95,1.06 z m 28.8,14.16 v 0 q 0,2.44 -0.89,4.69 -0.89,2.24 -2.43,4.02 -1.53,1.79 -3.54,2.82 -2,1.04 -4.22,1.04 v 0 q -3.08,0 -5.36,-1.51 -2.28,-1.51 -3.54,-4.13 -1.26,-2.61 -1.26,-5.93 v 0 q 0,-2.42 0.87,-4.68 0.87,-2.25 2.39,-4.05 1.53,-1.79 3.54,-2.83 2.02,-1.04 4.31,-1.04 v 0 q 3.08,0 5.35,1.52 2.27,1.51 3.53,4.12 1.25,2.61 1.25,5.96 z m -3.78,0.73 v 0 q 0,-2.59 -1.06,-4.77 -1.06,-2.19 -2.69,-3.53 -1.62,-1.34 -3.31,-1.34 v 0 q -2.46,0 -3.91,1.22 -1.46,1.22 -2.08,3.29 -0.62,2.08 -0.62,4.69 v 0 q 0,2.57 1.13,4.75 1.14,2.19 2.79,3.52 1.64,1.33 3.13,1.33 v 0 q 3.47,0 5.05,-2.49 1.57,-2.49 1.57,-6.67 z M 61.4,0 H 50.41 v -1.05 q 2.1,-0.37 2.88,-0.73 0.78,-0.37 0.78,-0.76 v 0 -29.1 q 0,-1.44 -0.28,-2.06 -0.28,-0.63 -1.02,-0.85 -0.75,-0.22 -2.12,-0.36 v 0 -0.98 q 1.76,-0.34 3.24,-0.76 1.48,-0.41 2.97,-1.19 v 0 l 0.87,0.83 v 34.47 q 0,0.37 0.83,0.76 0.83,0.39 2.84,0.73 v 0 z m 25.24,-22.71 v 1.05 q -1.47,0.35 -1.94,0.65 -0.48,0.31 -0.75,1.01 v 0 l -6.91,18.56 q -0.39,1.1 -1.52,1.56 -1.14,0.47 -1.77,0.61 v 0 L 65.69,-20 q -0.46,-1.14 -2.71,-1.66 v 0 -1.05 h 9.42 v 1.05 q -1.88,0.25 -2.47,0.57 -0.6,0.31 -0.28,1.09 v 0 l 6,15.65 5.64,-15.65 q 0.27,-0.73 -0.23,-1.06 -0.5,-0.33 -2.31,-0.6 v 0 -1.05 z m 20.45,9.11 v 0 q -0.43,0.49 -1.17,0.9 -0.73,0.42 -1.51,0.74 v 0 H 90.4 l 0.04,-2.2 h 11.72 q 0.56,0 0.75,-0.18 0.18,-0.19 0.18,-0.7 v 0 q 0,-0.66 -0.19,-1.63 -0.2,-0.98 -0.72,-1.95 -0.53,-0.96 -1.53,-1.61 -1,-0.64 -2.59,-0.64 v 0 q -1.95,0 -3.42,1.14 -1.46,1.15 -2.27,3.12 -0.8,1.96 -0.8,4.48 v 0 q 0,2.56 0.86,4.77 0.87,2.21 2.49,3.56 1.63,1.36 3.87,1.36 v 0 q 1.03,0 1.99,-0.21 0.97,-0.21 2.21,-0.91 1.25,-0.71 3.05,-2.2 v 0 q 0.32,0.17 0.57,0.49 0.24,0.31 0.34,0.51 v 0 q -2.17,2.37 -3.71,3.55 -1.54,1.19 -2.9,1.56 -1.35,0.38 -3.04,0.38 v 0 q -2.49,0 -4.63,-1.4 -2.15,-1.41 -3.46,-3.94 -1.3,-2.54 -1.3,-5.99 v 0 q 0,-3.29 1.42,-6.23 1.43,-2.95 3.97,-4.68 v 0 q 1.07,-0.76 2.61,-1.34 1.54,-0.59 2.83,-0.59 v 0 q 2.4,0 4.01,0.94 1.61,0.94 2.56,2.43 0.95,1.49 1.37,3.2 0.41,1.71 0.41,3.27 z M 127.23,-26 v 0 l -0.88,-0.15 q -1.34,-1.61 -2.92,-2.24 -1.59,-0.64 -2.98,-0.64 v 0 q -1.81,0 -2.95,0.69 -1.13,0.68 -1.66,1.67 -0.52,0.99 -0.52,1.91 v 0 q 0,1.54 1.11,2.64 1.11,1.1 2.86,2 1.74,0.91 3.7,1.83 1.95,0.93 3.69,2.13 1.75,1.19 2.86,2.87 1.11,1.67 1.11,4.09 v 0 q 0,1.63 -0.66,3.37 -0.66,1.73 -2.01,3.22 -1.36,1.49 -3.4,2.41 -2.03,0.93 -4.79,0.93 v 0 q -1.61,0 -3.71,-0.64 -2.1,-0.65 -3.84,-1.75 v 0 q -0.17,-0.1 -0.25,-0.82 -0.09,-0.72 -0.09,-1.73 0,-1.01 0.09,-2.03 0.08,-1.01 0.25,-1.67 v 0 l 1,0.12 q 1.13,2.88 3.28,4.24 2.14,1.35 4.63,1.35 v 0 q 1.47,0 2.9,-0.78 1.43,-0.78 2.37,-2.09 0.94,-1.3 0.94,-2.84 v 0 q 0,-1.98 -1.1,-3.28 -1.1,-1.31 -2.83,-2.24 -1.74,-0.93 -3.68,-1.77 -1.94,-0.84 -3.67,-1.89 -1.74,-1.05 -2.84,-2.6 -1.09,-1.55 -1.09,-3.92 v 0 q 0,-1.15 0.52,-2.5 0.53,-1.36 1.67,-2.59 1.15,-1.23 3.01,-2.01 1.85,-0.78 4.54,-0.78 v 0 q 2.22,0 4.28,0.63 2.06,0.64 2.97,1.61 v 0 q 0.24,0.2 -0.09,0.84 -0.33,0.65 -0.86,1.35 -0.54,0.69 -0.96,1.06 z m 20.83,26.73 v 0 q -1.42,0 -3.24,-0.82 -1.82,-0.81 -3.55,-2.3 v 0 11.55 q 0,0.39 0.91,0.78 0.92,0.39 3.22,0.73 v 0 1.05 h -11.21 v -1.05 q 1.61,-0.39 2.51,-0.75 0.91,-0.35 0.91,-0.76 v 0 -26.52 q 0,-1.22 -0.21,-1.88 -0.21,-0.66 -0.93,-0.93 -0.72,-0.26 -2.28,-0.34 v 0 -0.97 q 1.68,-0.37 3.06,-0.82 1.38,-0.45 2.8,-1.14 v 0 l 0.85,0.86 0.22,4.83 q 2.44,-2.93 4.81,-4.31 2.37,-1.38 3.76,-1.38 v 0 q 3.35,0 5.52,3.04 2.17,3.04 2.17,8.39 v 0 q 0,2.12 -0.78,4.36 -0.78,2.23 -2.1,4.13 -1.32,1.91 -2.99,3.08 -1.67,1.17 -3.45,1.17 z m 0,-21.12 v 0 q -0.88,0 -2.76,1.18 -1.88,1.17 -4.03,4.32 v 0 9.69 q 2.17,1.64 3.8,2.2 1.62,0.56 2.94,0.56 v 0 q 2.61,0 4.34,-2.03 1.74,-2.02 1.74,-5.93 v 0 q 0,-2.86 -0.86,-5.12 -0.85,-2.25 -2.22,-3.56 -1.37,-1.31 -2.95,-1.31 z m 33.51,17.29 0.37,1.1 q -2.07,1.41 -3.43,2.07 -1.35,0.66 -2.04,0.66 v 0 q -0.85,0 -1.39,-1.28 -0.54,-1.28 -0.54,-3.45 v 0 -13.14 q 0,-1.66 -0.85,-2.79 -0.86,-1.14 -3.25,-1.07 v 0 q -1.56,0.03 -2.84,0.94 -1.28,0.92 -1.14,2.38 v 0 q 0.05,0.3 -0.83,0.66 -0.88,0.37 -1.89,0.6 -1.01,0.23 -1.43,0.14 v 0 l -0.34,-0.96 q 0.76,-1.63 2.49,-3.04 1.73,-1.4 3.92,-2.28 2.18,-0.88 4.23,-0.88 v 0 q 2.69,0 4.14,1.41 1.46,1.4 1.46,3.91 v 0 13.77 q 0,1.91 0.97,1.91 v 0 q 0.34,0 0.88,-0.14 0.54,-0.13 1.51,-0.52 z m -6.78,-10.65 v 1.84 q -2.81,0.44 -4.37,0.87 -1.57,0.44 -2.37,0.92 -0.81,0.48 -1.34,1.04 v 0 q -0.61,0.66 -1.02,1.5 -0.4,0.84 -0.4,1.99 v 0 q 0,1.29 0.48,1.98 0.47,0.68 1.11,0.92 0.63,0.25 1.05,0.25 v 0 q 1.51,0 3.22,-0.81 1.71,-0.8 3.64,-2.51 v 0 l 0.19,1.8 q -2.29,2.47 -4.56,3.58 -2.27,1.11 -3.93,1.11 v 0 q -1.18,0 -2.37,-0.52 -1.2,-0.53 -2.02,-1.7 -0.81,-1.17 -0.81,-3.05 v 0 q 0,-1.88 0.64,-3.11 0.65,-1.24 1.55,-2.14 v 0 q 0.81,-0.81 1.96,-1.49 1.14,-0.68 3.33,-1.29 2.18,-0.61 6.02,-1.18 z m 27.05,8.11 0.95,1 q -2.13,2.49 -3.6,3.63 -1.48,1.13 -2.75,1.44 -1.27,0.3 -2.81,0.3 v 0 q -2.37,0 -4.53,-1.38 -2.16,-1.38 -3.51,-3.98 -1.36,-2.6 -1.36,-6.21 v 0 q 0,-3.52 1.65,-6.37 1.65,-2.86 4.48,-4.54 2.83,-1.69 6.32,-1.69 v 0 q 1.62,0 3.26,0.54 1.65,0.54 2.48,1.39 v 0 q 0.07,0.39 -0.16,1.17 -0.23,0.78 -0.57,1.58 -0.34,0.79 -0.66,1.26 v 0 l -0.9,-0.25 q -0.39,-0.85 -1.76,-1.93 -1.37,-1.07 -3.88,-1.07 v 0 q -1.71,0 -3.21,1.01 -1.51,1.01 -2.45,3.05 -0.93,2.04 -0.93,5.09 v 0 q 0,2.76 1.06,4.83 1.06,2.06 2.77,3.19 1.71,1.14 3.66,1.14 v 0 q 0.93,0 1.71,-0.16 0.78,-0.16 1.85,-0.83 1.08,-0.67 2.89,-2.21 z m 23.43,-7.96 v 0 q -0.44,0.49 -1.17,0.9 -0.73,0.42 -1.52,0.74 v 0 h -14.01 l 0.05,-2.2 h 11.72 q 0.56,0 0.74,-0.18 0.19,-0.19 0.19,-0.7 v 0 q 0,-0.66 -0.2,-1.63 -0.19,-0.98 -0.72,-1.95 -0.52,-0.96 -1.52,-1.61 -1.01,-0.64 -2.59,-0.64 v 0 q -1.96,0 -3.42,1.14 -1.47,1.15 -2.27,3.12 -0.81,1.96 -0.81,4.48 v 0 q 0,2.56 0.87,4.77 0.87,2.21 2.49,3.56 1.62,1.36 3.87,1.36 v 0 q 1.03,0 1.99,-0.21 0.96,-0.21 2.21,-0.91 1.24,-0.71 3.05,-2.2 v 0 q 0.32,0.17 0.56,0.49 0.25,0.31 0.34,0.51 v 0 q -2.17,2.37 -3.71,3.55 -1.54,1.19 -2.89,1.56 -1.35,0.38 -3.04,0.38 v 0 q -2.49,0 -4.64,-1.4 -2.15,-1.41 -3.45,-3.94 -1.31,-2.54 -1.31,-5.99 v 0 q 0,-3.29 1.43,-6.23 1.43,-2.95 3.97,-4.68 v 0 q 1.07,-0.76 2.61,-1.34 1.54,-0.59 2.83,-0.59 v 0 q 2.39,0 4,0.94 1.62,0.94 2.57,2.43 0.95,1.49 1.37,3.2 0.41,1.71 0.41,3.27 z"
                 opacity="1"
                 fill="#000000"
                 class="wordmark-text-0"
                 data-fill-palette-color="primary"
                 id="path18"
                 style="fill:#f2f2f2" />
            </svg>
          </g>
        </svg>
      </g>
      <g
         transform="translate(0,108.92902)"
         id="g22"
         style="fill:#f2f2f2">
        <svg
           viewBox="0 0 232.20979 14.385389"
           height="14.385389"
           width="232.20979"
           version="1.1"
           id="svg21"
           style="fill:#f2f2f2">
          <g
             id="g21"
             style="fill:#f2f2f2">
            <svg
               width="232.20979"
               viewBox="1 -35.2 721.47 44.7"
               height="14.385389"
               data-palette-color="#db3e25"
               version="1.1"
               id="svg20"
               style="fill:#f2f2f2">
              <path
                 d="M 38.05,0 H 32.2 l -9.35,-30.35 -1.15,-3.7 h 4.9 l 9.55,31.55 -2.2,-0.5 8.3,-31.05 H 47.3 Z M 16.1,0 H 10.25 L 1,-34.05 h 5.05 l 8.3,31.05 -2.2,0.5 9.55,-31.55 h 4.9 l -1.15,3.7 z m 40.4,0 h -5 v -34.05 h 5 z m 16.35,0 h -5 v -15.6 q 0,-2.6 -1.18,-3.5 Q 65.5,-20 63.9,-20 v 0 q -1.6,0 -3.25,0.65 -1.65,0.65 -2.95,1.75 -1.3,1.1 -2,2.45 v 0 l -0.6,-4.8 q 1.4,-1.6 3.05,-2.7 1.65,-1.1 3.5,-1.68 1.85,-0.57 3.8,-0.57 v 0 q 2.6,0 4.1,0.87 1.5,0.88 2.2,2.35 0.7,1.48 0.9,3.33 0.2,1.85 0.2,3.8 v 0 z M 89.5,0.5 v 0 q -3.55,0 -6.25,-1.57 -2.7,-1.58 -4.2,-4.43 -1.5,-2.85 -1.5,-6.65 v 0 q 0,-3.85 1.5,-6.7 1.5,-2.85 4.2,-4.45 2.7,-1.6 6.25,-1.6 v 0 q 3.6,0 6.3,1.6 2.7,1.6 4.2,4.45 1.5,2.85 1.5,6.7 v 0 q 0,0.35 -0.03,0.72 -0.02,0.38 -0.07,0.68 v 0 H 82.3 v -4.3 h 15.5 l -1.4,2.9 q 0,-3.8 -1.7,-6.25 -1.7,-2.45 -5.2,-2.45 v 0 q -3.1,0 -4.95,1.97 -1.85,1.98 -1.85,5.18 v 0 2.6 q 0,3.35 1.8,5.32 1.8,1.98 5,1.98 v 0 q 2.95,0 4.55,-1.25 1.6,-1.25 2.8,-3.1 v 0 l 3.75,2.35 Q 98.9,-2.65 96.22,-1.07 93.55,0.5 89.5,0.5 Z m 16.69,-24.9 h 3.8 l 1.2,6.6 V 0 h -5 z m 4.25,8.65 v 0 l -1.2,-0.55 v -3.65 l 0.45,-0.55 q 0.5,-0.9 1.58,-1.93 1.07,-1.02 2.52,-1.75 1.45,-0.72 2.95,-0.72 v 0 q 0.75,0 1.43,0.1 0.67,0.1 1.02,0.35 v 0 4.5 h -1.55 q -3.4,0 -4.95,1.02 -1.55,1.03 -2.25,3.18 z M 133.89,0.5 v 0 q -3.55,0 -6.25,-1.57 -2.7,-1.58 -4.2,-4.43 -1.5,-2.85 -1.5,-6.65 v 0 q 0,-3.85 1.5,-6.7 1.5,-2.85 4.2,-4.45 2.7,-1.6 6.25,-1.6 v 0 q 3.6,0 6.3,1.6 2.7,1.6 4.2,4.45 1.5,2.85 1.5,6.7 v 0 q 0,0.35 -0.02,0.72 -0.03,0.38 -0.08,0.68 v 0 h -19.1 v -4.3 h 15.5 l -1.4,2.9 q 0,-3.8 -1.7,-6.25 -1.7,-2.45 -5.2,-2.45 v 0 q -3.1,0 -4.95,1.97 -1.85,1.98 -1.85,5.18 v 0 2.6 q 0,3.35 1.8,5.32 1.8,1.98 5,1.98 v 0 q 2.95,0 4.55,-1.25 1.6,-1.25 2.8,-3.1 v 0 l 3.75,2.35 q -1.7,3.15 -4.37,4.73 -2.68,1.57 -6.73,1.57 z m 45.2,0 v 0 q -5.15,0 -9.03,-2.28 -3.87,-2.27 -6.02,-6.25 -2.15,-3.97 -2.15,-8.97 v 0 q 0,-3.8 1.3,-7 1.3,-3.2 3.62,-5.55 2.33,-2.35 5.45,-3.65 3.13,-1.3 6.83,-1.3 v 0 q 5.8,0 9.5,2.37 3.7,2.38 6.05,6.38 v 0 l -4.9,1.45 q -2.3,-3.15 -4.93,-4.28 -2.62,-1.12 -5.72,-1.12 v 0 q -3.45,0 -6.18,1.65 -2.72,1.65 -4.32,4.5 -1.6,2.85 -1.6,6.55 v 0 q 0,3.65 1.6,6.52 1.6,2.88 4.32,4.53 2.73,1.65 6.18,1.65 v 0 q 3.1,0 5.72,-1.13 2.63,-1.12 4.93,-4.27 v 0 l 4.9,1.45 q -2.35,4 -6.05,6.37 -3.7,2.38 -9.5,2.38 z m 27.69,0 v 0 q -2.75,0 -4.35,-0.88 -1.6,-0.87 -2.35,-2.35 -0.75,-1.47 -0.97,-3.32 -0.23,-1.85 -0.23,-3.8 v 0 -14.55 h 5 v 15.6 q 0,2.6 1.18,3.5 1.17,0.9 2.77,0.9 v 0 q 1.65,0 3.28,-0.65 1.62,-0.65 2.95,-1.78 1.32,-1.12 1.97,-2.42 v 0 2.8 h -0.8 V -24.4 h 5 V 0 h -3.8 l -1.05,-4.3 1.25,-0.15 q -1.3,1.55 -2.9,2.67 -1.6,1.13 -3.35,1.7 -1.75,0.58 -3.6,0.58 z m 19.85,-24.9 h 3.8 l 1.2,6.6 V 0 h -5 z m 4.25,8.65 v 0 l -1.2,-0.55 v -3.65 l 0.45,-0.55 q 0.5,-0.9 1.58,-1.93 1.07,-1.02 2.52,-1.75 1.45,-0.72 2.95,-0.72 v 0 q 0.75,0 1.43,0.1 0.67,0.1 1.02,0.35 v 0 4.5 h -1.55 q -3.4,0 -4.95,1.02 -1.55,1.03 -2.25,3.18 z m 18.1,-8.65 V 0 h -5 v -24.4 z m -5.75,-7.5 v 0 q 0,-1.45 0.87,-2.37 0.88,-0.93 2.38,-0.93 v 0 q 1.45,0 2.35,0.93 0.9,0.92 0.9,2.37 v 0 q 0,1.4 -0.9,2.32 -0.9,0.93 -2.35,0.93 v 0 q -1.5,0 -2.38,-0.93 -0.87,-0.92 -0.87,-2.32 z m 23.25,32.4 v 0 q -3.7,0 -6.53,-1.57 -2.82,-1.58 -4.37,-4.43 -1.55,-2.85 -1.55,-6.65 v 0 q 0,-3.85 1.55,-6.7 1.55,-2.85 4.37,-4.45 2.83,-1.6 6.53,-1.6 v 0 q 3.75,0 6.55,1.6 2.8,1.6 4.37,4.45 1.58,2.85 1.58,6.7 v 0 q 0,3.8 -1.58,6.65 -1.57,2.85 -4.37,4.43 -2.8,1.57 -6.55,1.57 z m 0,-4.8 v 0 q 3.35,0 5.37,-2.18 2.03,-2.17 2.03,-5.67 v 0 q 0,-3.55 -2.03,-5.75 -2.02,-2.2 -5.37,-2.2 v 0 q -3.3,0 -5.33,2.17 -2.02,2.18 -2.02,5.73 v 0 q 0,3.55 2.02,5.72 2.03,2.18 5.33,2.18 z m 25.24,4.8 v 0 q -2.55,0 -5.02,-1.2 -2.48,-1.2 -4.08,-4.1 v 0 l 3.8,-2.5 q 1.4,1.85 2.65,2.67 1.25,0.83 3.25,0.83 v 0 q 1.6,0 2.48,-0.83 0.87,-0.82 0.87,-2.02 v 0 q 0,-0.8 -0.42,-1.4 -0.43,-0.6 -1.48,-1.13 -1.05,-0.52 -3,-1.02 v 0 q -3.6,-0.95 -5.55,-2.5 -1.95,-1.55 -1.95,-4.9 v 0 q 0,-2 1,-3.65 1,-1.65 2.9,-2.65 1.9,-1 4.5,-1 v 0 q 3.1,0 5.3,1.27 2.2,1.28 3.45,3.03 v 0 l -3.85,2.85 q -0.7,-0.9 -2.05,-1.78 -1.35,-0.87 -3.4,-0.87 v 0 q -1.25,0 -2.3,0.7 -1.05,0.7 -1.05,1.95 v 0 q 0,1.25 0.98,2.02 0.97,0.78 3.57,1.38 v 0 q 4.4,1.05 6.25,2.72 1.85,1.68 1.85,4.43 v 0 q 0,2.4 -1.22,4.12 -1.23,1.73 -3.2,2.65 -1.98,0.93 -4.28,0.93 z m 18.9,-24.9 V 0 h -5 v -24.4 z m -5.75,-7.5 v 0 q 0,-1.45 0.88,-2.37 0.87,-0.93 2.37,-0.93 v 0 q 1.45,0 2.35,0.93 0.9,0.92 0.9,2.37 v 0 q 0,1.4 -0.9,2.32 -0.9,0.93 -2.35,0.93 v 0 q -1.5,0 -2.37,-0.93 -0.88,-0.92 -0.88,-2.32 z m 21.25,32.35 v 0 q -3.2,0 -5.08,-1.88 -1.87,-1.87 -1.87,-5.82 v 0 -16.85 -0.3 l 0.95,-5.5 h 4.05 v 22.75 q 0,1.4 0.72,2.1 0.73,0.7 1.83,0.7 v 0 q 0.85,0 1.5,-0.1 0.65,-0.1 1.15,-0.25 v 0 4.65 q -0.65,0.2 -1.43,0.35 -0.77,0.15 -1.82,0.15 z m 3.25,-20.25 h -13.95 v -4.6 h 13.95 z m 17.05,14.25 -4.15,2.45 -9.65,-21.3 h 5.25 z m -5.3,15.05 h -5.25 l 15.4,-33.9 h 5.25 z M 377.01,0 h -5.25 l 6.25,-34.05 h 4.45 l 9.35,24.85 h 0.15 l 9.35,-24.85 h 4.45 L 412.01,0 h -5.25 l -2.75,-16.2 q -0.6,-3.5 -1,-6.93 -0.4,-3.42 -0.5,-6.87 v 0 h 1.25 q -0.9,4.15 -1.87,7.3 -0.98,3.15 -2.23,6.5 v 0 l -5.85,15.65 h -3.85 l -5.85,-15.65 q -1.25,-3.4 -2.22,-6.53 -0.98,-3.12 -1.88,-7.27 v 0 h 1.25 q -0.1,3.45 -0.5,6.87 -0.4,3.43 -1,6.93 v 0 z m 50.45,0.5 v 0 q -3.55,0 -6.25,-1.57 -2.7,-1.58 -4.2,-4.43 -1.5,-2.85 -1.5,-6.65 v 0 q 0,-3.85 1.5,-6.7 1.5,-2.85 4.2,-4.45 2.7,-1.6 6.25,-1.6 v 0 q 3.6,0 6.3,1.6 2.7,1.6 4.2,4.45 1.5,2.85 1.5,6.7 v 0 q 0,0.35 -0.03,0.72 -0.02,0.38 -0.07,0.68 v 0 h -19.1 v -4.3 h 15.5 l -1.4,2.9 q 0,-3.8 -1.7,-6.25 -1.7,-2.45 -5.2,-2.45 v 0 q -3.1,0 -4.95,1.97 -1.85,1.98 -1.85,5.18 v 0 2.6 q 0,3.35 1.8,5.32 1.8,1.98 5,1.98 v 0 q 2.95,0 4.55,-1.25 1.6,-1.25 2.8,-3.1 v 0 l 3.75,2.35 q -1.7,3.15 -4.38,4.73 -2.67,1.57 -6.72,1.57 z m 27.15,0 v 0 q -3.55,0 -6.25,-1.57 -2.7,-1.58 -4.2,-4.43 -1.5,-2.85 -1.5,-6.65 v 0 q 0,-3.85 1.5,-6.7 1.5,-2.85 4.2,-4.45 2.7,-1.6 6.25,-1.6 v 0 q 3.6,0 6.3,1.6 2.7,1.6 4.2,4.45 1.5,2.85 1.5,6.7 v 0 q 0,0.35 -0.03,0.72 -0.02,0.38 -0.07,0.68 v 0 h -19.1 v -4.3 h 15.5 l -1.4,2.9 q 0,-3.8 -1.7,-6.25 -1.7,-2.45 -5.2,-2.45 v 0 q -3.1,0 -4.95,1.97 -1.85,1.98 -1.85,5.18 v 0 2.6 q 0,3.35 1.8,5.32 1.8,1.98 5,1.98 v 0 q 2.95,0 4.55,-1.25 1.6,-1.25 2.8,-3.1 v 0 l 3.75,2.35 q -1.7,3.15 -4.38,4.73 -2.67,1.57 -6.72,1.57 z M 480.3,0.45 v 0 q -3.2,0 -5.07,-1.88 -1.88,-1.87 -1.88,-5.82 v 0 -16.85 -0.3 l 0.95,-5.5 h 4.05 v 22.75 q 0,1.4 0.73,2.1 0.72,0.7 1.82,0.7 v 0 q 0.85,0 1.5,-0.1 0.65,-0.1 1.15,-0.25 v 0 4.65 q -0.65,0.2 -1.42,0.35 -0.78,0.15 -1.83,0.15 z m 3.25,-20.25 H 469.6 v -4.6 h 13.95 z m 13.5,20.3 v 0 q -2.55,0 -5.02,-1.2 -2.48,-1.2 -4.08,-4.1 v 0 l 3.8,-2.5 q 1.4,1.85 2.65,2.67 1.25,0.83 3.25,0.83 v 0 q 1.6,0 2.48,-0.83 0.87,-0.82 0.87,-2.02 v 0 q 0,-0.8 -0.42,-1.4 -0.43,-0.6 -1.48,-1.13 -1.05,-0.52 -3,-1.02 v 0 q -3.6,-0.95 -5.55,-2.5 -1.95,-1.55 -1.95,-4.9 v 0 q 0,-2 1,-3.65 1,-1.65 2.9,-2.65 1.9,-1 4.5,-1 v 0 q 3.1,0 5.3,1.27 2.2,1.28 3.45,3.03 v 0 l -3.85,2.85 q -0.7,-0.9 -2.05,-1.78 -1.35,-0.87 -3.4,-0.87 v 0 q -1.25,0 -2.3,0.7 -1.05,0.7 -1.05,1.95 v 0 q 0,1.25 0.98,2.02 0.97,0.78 3.57,1.38 v 0 q 4.4,1.05 6.25,2.72 1.85,1.68 1.85,4.43 v 0 q 0,2.4 -1.22,4.12 -1.23,1.73 -3.2,2.65 -1.98,0.93 -4.28,0.93 z m 45.59,-15.25 h -13.75 v -4.7 h 13.75 z m 2.96,-14.6 h -16.85 l 1.14,-1.6 v 27 l -1.39,-0.8 h 17.1 V 0 H 524.89 V -34.05 H 545.6 Z M 571.94,0 h -6.05 l -6.25,-9.65 h 1.8 L 555.24,0 h -6.05 l 9.2,-13.45 v 2.5 l -9.2,-13.45 h 6.05 l 6.2,9.65 h -1.75 l 6.2,-9.65 h 6.05 l -9.2,13.45 v -2.5 z m 16.4,0.5 v 0 q -3.3,0 -5.75,-1.57 -2.45,-1.58 -3.83,-4.43 -1.37,-2.85 -1.37,-6.65 v 0 q 0,-3.85 1.37,-6.7 1.38,-2.85 3.83,-4.45 2.45,-1.6 5.75,-1.6 v 0 q 3.4,0 5.92,1.6 2.53,1.6 3.93,4.45 1.4,2.85 1.4,6.7 v 0 q 0,3.8 -1.4,6.65 -1.4,2.85 -3.93,4.43 -2.52,1.57 -5.92,1.57 z m -7.35,9 h -5 v -33.9 h 3.8 l 1.2,4.9 h -0.5 v 13.9 h 0.5 z m 6.6,-13.3 v 0 q 3.1,0 5,-2.3 1.9,-2.3 1.9,-6.05 v 0 q 0,-3.8 -1.9,-6.13 -1.9,-2.32 -5,-2.32 v 0 q -3.05,0 -4.95,2.3 -1.9,2.3 -1.9,6.1 v 0 q 0,3.8 1.9,6.1 1.9,2.3 4.95,2.3 z m 27.35,4.3 v 0 q -3.55,0 -6.25,-1.57 -2.7,-1.58 -4.2,-4.43 -1.5,-2.85 -1.5,-6.65 v 0 q 0,-3.85 1.5,-6.7 1.5,-2.85 4.2,-4.45 2.7,-1.6 6.25,-1.6 v 0 q 3.6,0 6.3,1.6 2.7,1.6 4.2,4.45 1.5,2.85 1.5,6.7 v 0 q 0,0.35 -0.03,0.72 -0.02,0.38 -0.07,0.68 v 0 h -19.1 v -4.3 h 15.5 l -1.4,2.9 q 0,-3.8 -1.7,-6.25 -1.7,-2.45 -5.2,-2.45 v 0 q -3.1,0 -4.95,1.97 -1.85,1.98 -1.85,5.18 v 0 2.6 q 0,3.35 1.8,5.32 1.8,1.98 5,1.98 v 0 q 2.95,0 4.55,-1.25 1.6,-1.25 2.8,-3.1 v 0 l 3.75,2.35 q -1.7,3.15 -4.38,4.73 -2.67,1.57 -6.72,1.57 z m 16.69,-24.9 h 3.8 l 1.2,6.6 V 0 h -5 z m 4.25,8.65 v 0 l -1.2,-0.55 v -3.65 l 0.45,-0.55 q 0.5,-0.9 1.58,-1.93 1.07,-1.02 2.52,-1.75 1.45,-0.72 2.95,-0.72 v 0 q 0.75,0 1.43,0.1 0.67,0.1 1.02,0.35 v 0 4.5 h -1.55 q -3.4,0 -4.95,1.02 -1.55,1.03 -2.25,3.18 z m 22,16.2 v 0 q -3.2,0 -5.07,-1.88 -1.88,-1.87 -1.88,-5.82 v 0 -16.85 -0.3 l 0.95,-5.5 h 4.05 v 22.75 q 0,1.4 0.73,2.1 0.72,0.7 1.82,0.7 v 0 q 0.85,0 1.5,-0.1 0.65,-0.1 1.15,-0.25 v 0 4.65 q -0.65,0.2 -1.42,0.35 -0.78,0.15 -1.83,0.15 z m 3.25,-20.25 h -13.95 v -4.6 h 13.95 z m 10.8,-4.6 V 0 h -5 v -24.4 z m -5.75,-7.5 v 0 q 0,-1.45 0.87,-2.37 0.88,-0.93 2.38,-0.93 v 0 q 1.45,0 2.35,0.93 0.9,0.92 0.9,2.37 v 0 q 0,1.4 -0.9,2.32 -0.9,0.93 -2.35,0.93 v 0 q -1.5,0 -2.38,-0.93 -0.87,-0.92 -0.87,-2.32 z m 20.05,32.4 v 0 q -2.55,0 -5.03,-1.2 -2.47,-1.2 -4.07,-4.1 v 0 l 3.8,-2.5 q 1.4,1.85 2.65,2.67 1.25,0.83 3.25,0.83 v 0 q 1.6,0 2.47,-0.83 0.88,-0.82 0.88,-2.02 v 0 q 0,-0.8 -0.43,-1.4 -0.42,-0.6 -1.47,-1.13 -1.05,-0.52 -3,-1.02 v 0 q -3.6,-0.95 -5.55,-2.5 -1.95,-1.55 -1.95,-4.9 v 0 q 0,-2 1,-3.65 1,-1.65 2.9,-2.65 1.9,-1 4.5,-1 v 0 q 3.1,0 5.3,1.27 2.2,1.28 3.45,3.03 v 0 l -3.85,2.85 q -0.7,-0.9 -2.05,-1.78 -1.35,-0.87 -3.4,-0.87 v 0 q -1.25,0 -2.3,0.7 -1.05,0.7 -1.05,1.95 v 0 q 0,1.25 0.97,2.02 0.98,0.78 3.58,1.38 v 0 q 4.4,1.05 6.25,2.72 1.85,1.68 1.85,4.43 v 0 q 0,2.4 -1.23,4.12 -1.22,1.73 -3.2,2.65 -1.97,0.93 -4.27,0.93 z m 24.24,0 v 0 q -3.55,0 -6.25,-1.57 -2.7,-1.58 -4.2,-4.43 -1.5,-2.85 -1.5,-6.65 v 0 q 0,-3.85 1.5,-6.7 1.5,-2.85 4.2,-4.45 2.7,-1.6 6.25,-1.6 v 0 q 3.6,0 6.3,1.6 2.7,1.6 4.2,4.45 1.5,2.85 1.5,6.7 v 0 q 0,0.35 -0.02,0.72 -0.03,0.38 -0.08,0.68 v 0 h -19.1 v -4.3 h 15.5 l -1.4,2.9 q 0,-3.8 -1.7,-6.25 -1.7,-2.45 -5.2,-2.45 v 0 q -3.1,0 -4.95,1.97 -1.85,1.98 -1.85,5.18 v 0 2.6 q 0,3.35 1.8,5.32 1.8,1.98 5,1.98 v 0 q 2.95,0 4.55,-1.25 1.6,-1.25 2.8,-3.1 v 0 l 3.75,2.35 q -1.7,3.15 -4.37,4.73 -2.68,1.57 -6.73,1.57 z"
                 opacity="1"
                 fill="#000000"
                 class="slogan-text-1"
                 data-fill-palette-color="secondary"
                 id="path20"
                 style="fill:#f2f2f2" />
            </svg>
          </g>
        </svg>
      </g>
    </svg>
  </g>
  <g
     id="g24"
     style="fill:#f2f2f2"
     transform="translate(1.1055744,461.71549)">
    <path
       d="m 132.09834,44.266295 c -7.82655,-3.687073 -11.83441,4.47055 -11.83441,4.47055 L 100.68934,80.808 96.753442,78.535711 110.80668,26.556831 c 0,0 1.85485,-8.6347 -6.26782,-10.310642 -9.029522,-1.976172 -11.702804,5.262252 -11.702804,5.262252 l -13.206012,50.662803 -4.398577,-1.213259 6.426159,-60.70406 c 0,0 0.546994,-9.45930465 -8.533938,-10.20987992 C 64.036586,-0.71475567 62.911751,8.5820958 62.911751,8.5820958 L 56.744696,69.292325 H 52.808802 L 48.223096,13.019744 c 0,0 -2.078991,-9.1652442 -10.020694,-9.1652442 -7.933478,0 -8.328301,10.7630442 -8.328301,10.7630442 l 2.019356,69.221547 -2.019356,2.216767 -15.046464,-11.840582 c 0,0 -7.0698017,-5.634455 -12.7268772,0.125439 -5.110081,5.200561 0.7094478,13.134039 0.7094478,13.134039 L 32.508312,133.38528 98.180563,137.30884 136.2337,55.078691 c 0,0 2.98585,-7.298059 -4.13536,-10.812396"
       fill="#000000"
       data-fill-palette-color="accent"
       id="path23"
       style="fill:#f2f2f2;stroke-width:2.05637" />
    <path
       id="path24"
       d="m 26.676445,141.3311 -7.071859,18.12896 v 10.96046 H 102.5812 v -24.23433 z"
       style="fill:#f2f2f2;stroke-width:2.05637" />
  </g>
  <g
     id="g26"
     style="fill:#ff0000"
     transform="translate(1362.0395,0.28448991)">
    <path
       d="m 132.09834,44.266295 c -7.82655,-3.687073 -11.83441,4.47055 -11.83441,4.47055 L 100.68934,80.808 96.753442,78.535711 110.80668,26.556831 c 0,0 1.85485,-8.6347 -6.26782,-10.310642 -9.029522,-1.976172 -11.702804,5.262252 -11.702804,5.262252 l -13.206012,50.662803 -4.398577,-1.213259 6.426159,-60.70406 c 0,0 0.546994,-9.45930465 -8.533938,-10.20987992 C 64.036586,-0.71475567 62.911751,8.5820958 62.911751,8.5820958 L 56.744696,69.292325 H 52.808802 L 48.223096,13.019744 c 0,0 -2.078991,-9.1652442 -10.020694,-9.1652442 -7.933478,0 -8.328301,10.7630442 -8.328301,10.7630442 l 2.019356,69.221547 -2.019356,2.216767 -15.046464,-11.840582 c 0,0 -7.0698017,-5.634455 -12.7268772,0.125439 -5.110081,5.200561 0.7094478,13.134039 0.7094478,13.134039 L 32.508312,133.38528 98.180563,137.30884 136.2337,55.078691 c 0,0 2.98585,-7.298059 -4.13536,-10.812396"
       fill="#000000"
       data-fill-palette-color="accent"
       id="path25"
       style="fill:#ff0000;stroke-width:2.05637" />
    <path
       id="path26"
       d="m 26.676445,141.3311 -7.071859,18.12896 v 10.96046 H 102.5812 v -24.23433 z"
       style="fill:#ff0000;stroke-width:2.05637" />
  </g>
  <g
     id="g28"
     style="fill:#000000"
     transform="translate(1362.0395,230.99999)">
    <path
       d="m 132.09834,44.266295 c -7.82655,-3.687073 -11.83441,4.47055 -11.83441,4.47055 L 100.68934,80.808 96.753442,78.535711 110.80668,26.556831 c 0,0 1.85485,-8.6347 -6.26782,-10.310642 -9.029522,-1.976172 -11.702804,5.262252 -11.702804,5.262252 l -13.206012,50.662803 -4.398577,-1.213259 6.426159,-60.70406 c 0,0 0.546994,-9.45930465 -8.533938,-10.20987992 C 64.036586,-0.71475567 62.911751,8.5820958 62.911751,8.5820958 L 56.744696,69.292325 H 52.808802 L 48.223096,13.019744 c 0,0 -2.078991,-9.1652442 -10.020694,-9.1652442 -7.933478,0 -8.328301,10.7630442 -8.328301,10.7630442 l 2.019356,69.221547 -2.019356,2.216767 -15.046464,-11.840582 c 0,0 -7.0698017,-5.634455 -12.7268772,0.125439 -5.110081,5.200561 0.7094478,13.134039 0.7094478,13.134039 L 32.508312,133.38528 98.180563,137.30884 136.2337,55.078691 c 0,0 2.98585,-7.298059 -4.13536,-10.812396"
       fill="#000000"
       data-fill-palette-color="accent"
       id="path27"
       style="fill:#000000;stroke-width:2.05637" />
    <path
       id="path28"
       d="m 26.676445,141.3311 -7.071859,18.12896 v 10.96046 H 102.5812 v -24.23433 z"
       style="fill:#000000;stroke-width:2.05637" />
  </g>
  <g
     id="g30"
     style="fill:#f2f2f2"
     transform="translate(1362.0395,461.71549)">
    <path
       d="m 132.09834,44.266295 c -7.82655,-3.687073 -11.83441,4.47055 -11.83441,4.47055 L 100.68934,80.808 96.753442,78.535711 110.80668,26.556831 c 0,0 1.85485,-8.6347 -6.26782,-10.310642 -9.029522,-1.976172 -11.702804,5.262252 -11.702804,5.262252 l -13.206012,50.662803 -4.398577,-1.213259 6.426159,-60.70406 c 0,0 0.546994,-9.45930465 -8.533938,-10.20987992 C 64.036586,-0.71475567 62.911751,8.5820958 62.911751,8.5820958 L 56.744696,69.292325 H 52.808802 L 48.223096,13.019744 c 0,0 -2.078991,-9.1652442 -10.020694,-9.1652442 -7.933478,0 -8.328301,10.7630442 -8.328301,10.7630442 l 2.019356,69.221547 -2.019356,2.216767 -15.046464,-11.840582 c 0,0 -7.0698017,-5.634455 -12.7268772,0.125439 -5.110081,5.200561 0.7094478,13.134039 0.7094478,13.134039 L 32.508312,133.38528 98.180563,137.30884 136.2337,55.078691 c 0,0 2.98585,-7.298059 -4.13536,-10.812396"
       fill="#000000"
       data-fill-palette-color="accent"
       id="path29"
       style="fill:#f2f2f2;stroke-width:2.05637" />
    <path
       id="path30"
       d="m 26.676445,141.3311 -7.071859,18.12896 v 10.96046 H 102.5812 v -24.23433 z"
       style="fill:#f2f2f2;stroke-width:2.05637" />
  </g>
</svg>
