<?xml version="1.0" encoding="utf-8"?>
<!-- Generator: Adobe Illustrator 27.3.1, SVG Export Plug-In . SVG Version: 6.00 Build 0)  -->
<svg version="1.1"
	 id="svg1" xmlns:sodipodi="http://sodipodi.sourceforge.net/DTD/sodipodi-0.dtd" xmlns:inkscape="http://www.inkscape.org/namespaces/inkscape" xmlns:svg="http://www.w3.org/2000/svg"
	 xmlns="http://www.w3.org/2000/svg" xmlns:xlink="http://www.w3.org/1999/xlink" x="0px" y="0px" viewBox="0 0 230.8 221.6"
	 style="enable-background:new 0 0 230.8 221.6;" xml:space="preserve">
<style type="text/css">
	.st0{fill:#E8547E;}
	.st1{opacity:0.8;fill:#45B2F6;enable-background:new    ;}
</style>
<sodipodi:namedview  bordercolor="#000000" borderopacity="0.25" id="namedview1" inkscape:current-layer="layer1" inkscape:cx="110.89444" inkscape:cy="-37.283475" inkscape:deskcolor="#d1d1d1" inkscape:document-units="mm" inkscape:pagecheckerboard="0" inkscape:pageopacity="0.0" inkscape:showpageshadow="2" inkscape:window-height="1017" inkscape:window-maximized="1" inkscape:window-width="1920" inkscape:window-x="-8" inkscape:window-y="-8" inkscape:zoom="0.52301991" pagecolor="#ffffff">
	</sodipodi:namedview>
<g>
	<path class="st0" d="M0,183.5c0-9.8,3.7-19.6,11-27L122.8,44.8c6.8-6.8,16.3-11,27-11c20.9,0,38.1,17.2,38.1,38.1v111.7
		c0,20.9-17.2,38.1-38.1,38.1H38.1c-9.8,0-19.6-3.7-27-11C3.7,203.2,0,193.3,0,183.5z"/>
	<path class="st1" d="M230.8,38.1c0,9.8-3.7,19.6-11,27L108.3,176.8c-6.8,6.8-16.3,11-27,11c-20.9,0-38.1-17.2-38.1-38.1V38.1
		C43,17.2,60.2,0,81.3,0H193c9.8,0,19.6,3.7,27,11C227.1,18.4,230.8,28.2,230.8,38.1z"/>
</g>
<g>
	<g>
		<path class="st0" d="M-407.7-151.9c0-7.6,2.8-15.2,8.5-20.9l86.4-86.4c5.2-5.2,12.6-8.5,20.9-8.5c16.1,0,29.4,13.3,29.4,29.4v86.4
			c0,16.1-13.3,29.4-29.4,29.4h-86.4c-7.6,0-15.2-2.8-20.9-8.5C-404.8-136.8-407.7-144.3-407.7-151.9z"/>
		<path class="st1" d="M-229.1-264.5c0,7.6-2.8,15.2-8.5,20.9l-86.2,86.4c-5.2,5.2-12.6,8.5-20.9,8.5c-16.1,0-29.4-13.3-29.4-29.4
			v-86.4c-0.2-16.1,13.1-29.4,29.4-29.4h86.4c7.6,0,15.2,2.8,20.9,8.5C-232-279.7-229.1-272.1-229.1-264.5z"/>
	</g>
	<g>
		<text transform="matrix(0.8771 0 0 1 -203.9674 -150.8168)" style="fill:#999999; font-family:'ArialMT'; font-size:28.4891px;">AN ONLINE LEARNING PLATFORM</text>
		<text transform="matrix(1 0 0 1 -204.0045 -208.5522)" style="font-family:'Merriweather-Black'; font-size:75.9708px;">SolveSpace</text>
	</g>
</g>
</svg>
