<?xml version="1.0" encoding="utf-8"?>
<!-- Generator: Adobe Illustrator 27.3.1, SVG Export Plug-In . SVG Version: 6.00 Build 0)  -->
<svg version="1.1"
	 id="svg1" xmlns:svg="http://www.w3.org/2000/svg" xmlns:inkscape="http://www.inkscape.org/namespaces/inkscape" xmlns:sodipodi="http://sodipodi.sourceforge.net/DTD/sodipodi-0.dtd"
	 xmlns="http://www.w3.org/2000/svg" xmlns:xlink="http://www.w3.org/1999/xlink" x="0px" y="0px" viewBox="0 0 265.6 72.2"
	 style="enable-background:new 0 0 265.6 72.2;" xml:space="preserve">
<style type="text/css">
	.st0{fill:#E8547E;}
	.st1{opacity:0.8;fill:#45B2F6;enable-background:new    ;}
	.st2{fill:#999999;}
	.st3{font-family:'ArialMT';}
	.st4{font-size:12px;}
	.st5{font-family:'Merriweather-Black';}
	.st6{font-size:32px;}
</style>
<sodipodi:namedview  bordercolor="#000000" borderopacity="0.25" id="namedview1" inkscape:current-layer="layer1" inkscape:cx="110.89444" inkscape:cy="-37.283475" inkscape:deskcolor="#d1d1d1" inkscape:document-units="mm" inkscape:pagecheckerboard="0" inkscape:pageopacity="0.0" inkscape:showpageshadow="2" inkscape:window-height="1017" inkscape:window-maximized="1" inkscape:window-width="1920" inkscape:window-x="-8" inkscape:window-y="-8" inkscape:zoom="0.52301991" pagecolor="#ffffff">
	</sodipodi:namedview>
<g>
	<path class="st0" d="M-67,224.8c0-3.2,1.2-6.4,3.6-8.8l36.4-36.4c2.2-2.2,5.3-3.6,8.8-3.6c6.8,0,12.4,5.6,12.4,12.4v36.4
		c0,6.8-5.6,12.4-12.4,12.4h-36.4c-3.2,0-6.4-1.2-8.8-3.6C-65.8,231.2-67,228-67,224.8z"/>
	<path class="st1" d="M8.2,177.4c0,3.2-1.2,6.4-3.6,8.8l-36.3,36.4c-2.2,2.2-5.3,3.6-8.8,3.6c-6.8,0-12.4-5.6-12.4-12.4v-36.4
		c-0.1-6.8,5.5-12.4,12.4-12.4h36.4c3.2,0,6.4,1.2,8.8,3.6C7,171,8.2,174.2,8.2,177.4z"/>
</g>
<g>
	<g>
		<path class="st0" d="M0,59.8c0-3.2,1.2-6.4,3.6-8.8L40,14.6c2.2-2.2,5.3-3.6,8.8-3.6c6.8,0,12.4,5.6,12.4,12.4v36.4
			c0,6.8-5.6,12.4-12.4,12.4H12.4c-3.2,0-6.4-1.2-8.8-3.6S0,63,0,59.8z"/>
		<path class="st1" d="M75.2,12.4c0,3.2-1.2,6.4-3.6,8.8L35.3,57.6c-2.2,2.2-5.3,3.6-8.8,3.6c-6.8,0-12.4-5.6-12.4-12.4V12.4
			C14,5.6,19.6,0,26.5,0h36.4c3.2,0,6.4,1.2,8.8,3.6C74,6,75.2,9.2,75.2,12.4z"/>
	</g>
	<g>
		<text transform="matrix(0.8771 0 0 1 85.7949 60.2751)" class="st2 st3 st4">AN ONLINE LEARNING PLATFORM</text>
		<text transform="matrix(1 0 0 1 85.7795 35.9557)" class="st5 st6">SolveSpace</text>
	</g>
</g>
</svg>
